<svg xmlns="http://www.w3.org/2000/svg" xmlns:xlink="http://www.w3.org/1999/xlink" width="145" height="145" viewBox="0 0 145 145"><defs><path id="dwf1a" d="M374.6 229.615c0-31.82 25.795-57.615 57.615-57.615s57.615 25.795 57.615 57.615-25.795 57.615-57.615 57.615-57.615-25.795-57.615-57.615z"/><path id="dwf1b" d="M428.702 206.277l23.911 9.708v-2l-23.91-9.708zm-5-2.03l2 .811v-2l-2-.812zm-4.157-1.689l2 .812v-2l-2-.812zm-4.158-1.688l2 .812v-2l-2-.812zM458 256.485c0 2.68-2.19 3.96-4.87 2.846l-38.26-15.9c-2.68-1.114-4.87-4.214-4.87-6.894v-32.26l44.596 17.967 3.404 1.549zm-3.404-34.24L410 201.957v-3.68c0-2.68 2.19-3.982 4.87-2.893l38.26 15.535c2.68 1.088 4.87 4.168 4.87 6.848v6.025-.177z"/><path id="dwf1c" d="M436.88 253.565l-4.05-1.686v6.18l-8.85-9.865L411 242.79v-18.67l25.88 10.775z"/><path id="dwf1d" d="M427.88 259.695l-4.05-1.686v6.18l-8.85-9.865L402 248.92v-18.67l25.88 10.775z"/><path id="dwf1h" d="M444.88 246.445l-4.05-1.686v6.18l-8.85-9.865L419 235.67V217l25.88 10.775z"/><path id="dwf1k" d="M415.53 237.09v-2.92h2.2v2.92z"/><path id="dwf1l" d="M420.4 239.12v-2.92h2.2v2.92z"/><path id="dwf1m" d="M425.28 241.15v-2.92h2.2v2.92z"/><path id="dwf1p" d="M423.53 229.98v-2.92h2.2v2.92z"/><path id="dwf1q" d="M406.53 243.22v-2.92h2.2v2.92z"/><path id="dwf1r" d="M428.4 232.01v-2.92h2.2v2.92z"/><path id="dwf1s" d="M411.4 245.25v-2.92h2.2v2.92z"/><path id="dwf1t" d="M433.28 234.04v-2.92h2.2v2.92z"/><path id="dwf1u" d="M416.28 247.28v-2.92h2.2v2.92z"/><path id="dwf1v" d="M438.15 236.06v-2.92h2.2v2.92z"/><path id="dwf1w" d="M430.15 243.18v-2.92h2.2v2.92z"/><path id="dwf1x" d="M421.15 249.31v-2.92h2.2v2.92z"/><path id="dwf1y" d="M415.39 198.87v2l2 .812-.011-2.042z"/><path id="dwf1z" d="M419.54 200.56v2l2 .812v-2z"/><path id="dwf1A" d="M423.7 202.25v2l2 .812v-2z"/><path id="dwf1B" d="M428.7 204.28v2l23.91 9.709v-2z"/><path id="dwf1C" d="M410 201.96v2.312l47.02 18.945.98.395v-2.168l-1.01-.41z"/><path id="dwf1D" d="M458.002 223.619l.996-.216v-2.263l-.996.31z"/><clipPath id="dwf1e"><use fill="#fff" xlink:href="#dwf1a"/></clipPath><mask id="dwf1g" width="2" height="2" x="-1" y="-1"><path fill="#fff" d="M410 195h48v65h-48z"/><use xlink:href="#dwf1b"/></mask><filter id="dwf1f" width="69" height="85" x="400" y="185" filterUnits="userSpaceOnUse"><feOffset dx="1" in="SourceGraphic" result="FeOffset1043Out"/><feGaussianBlur in="FeOffset1043Out" result="FeGaussianBlur1044Out" stdDeviation="0 0"/></filter><mask id="dwf1j" width="2" height="2" x="-1" y="-1"><path fill="#fff" d="M411 225h26v34h-26z"/><use xlink:href="#dwf1c"/></mask><filter id="dwf1i" width="46.5" height="54" x="401" y="215" filterUnits="userSpaceOnUse"><feOffset dx=".5" in="SourceGraphic" result="FeOffset1066Out"/><feGaussianBlur in="FeOffset1066Out" result="FeGaussianBlur1067Out" stdDeviation="0 0"/></filter><mask id="dwf1o" width="2" height="2" x="-1" y="-1"><path fill="#fff" d="M402 231h26v34h-26z"/><use xlink:href="#dwf1d"/></mask><filter id="dwf1n" width="46.5" height="54" x="392" y="221" filterUnits="userSpaceOnUse"><feOffset dx=".5" in="SourceGraphic" result="FeOffset1097Out"/><feGaussianBlur in="FeOffset1097Out" result="FeGaussianBlur1098Out" stdDeviation="0 0"/></filter></defs><g><g clip-path="url(#clip-3F2C7D5F-7FDA-43BA-936F-17C9BA43E66C)" transform="translate(-360 -163)"><g><g><use fill="#cbe9fd" xlink:href="#dwf1a"/></g><g opacity=".48"><use fill="#fff" fill-opacity="0" stroke="#f7f7f7" stroke-miterlimit="50" stroke-width="4" clip-path="url(&quot;#dwf1e&quot;)" xlink:href="#dwf1a"/></g></g><g><g><g><g filter="url(#dwf1f)"><use fill="none" stroke-width="0" mask="url(&quot;#dwf1g&quot;)" xlink:href="#dwf1b"/><use fill="#1f75ab" xlink:href="#dwf1b"/></g><use fill="#47b4f9" xlink:href="#dwf1b"/></g><g><g><use fill="#fff" xlink:href="#dwf1h"/></g><g><g filter="url(#dwf1i)"><use fill="none" stroke-width="0" mask="url(&quot;#dwf1j&quot;)" xlink:href="#dwf1c"/><use fill="#58ace0" xlink:href="#dwf1c"/></g><use fill="#9ed8fd" xlink:href="#dwf1c"/></g><g><use fill="#fff" xlink:href="#dwf1k"/></g><g><use fill="#fff" xlink:href="#dwf1l"/></g><g><use fill="#fff" xlink:href="#dwf1m"/></g><g><g filter="url(#dwf1n)"><use fill="none" stroke-width="0" mask="url(&quot;#dwf1o&quot;)" xlink:href="#dwf1d"/><use fill="#1f75ab" xlink:href="#dwf1d"/></g><use fill="#1ca7ff" xlink:href="#dwf1d"/></g><g><use fill="#47b4f9" xlink:href="#dwf1p"/></g><g opacity=".5"><use fill="#fff" xlink:href="#dwf1q"/></g><g><use fill="#47b4f9" xlink:href="#dwf1r"/></g><g opacity=".5"><use fill="#fff" xlink:href="#dwf1s"/></g><g><use fill="#47b4f9" xlink:href="#dwf1t"/></g><g opacity=".51"><use fill="#fff" xlink:href="#dwf1u"/></g><g><use fill="#47b4f9" xlink:href="#dwf1v"/></g><g><use fill="#fff" xlink:href="#dwf1w"/></g><g opacity=".51"><use fill="#fff" xlink:href="#dwf1x"/></g></g><g><use fill="#8bcdfd" xlink:href="#dwf1y"/></g></g><g><use fill="#8bcdfd" xlink:href="#dwf1z"/></g><g><use fill="#8bcdfd" xlink:href="#dwf1A"/></g><g><use fill="#8bcdfd" xlink:href="#dwf1B"/></g><g><use fill="#8bcdfd" xlink:href="#dwf1C"/></g><g><use fill="#8acefd" xlink:href="#dwf1D"/></g></g></g></g></svg>