<svg xmlns="http://www.w3.org/2000/svg" xmlns:xlink="http://www.w3.org/1999/xlink" width="64" height="64" viewBox="0 0 64 64"><defs><path id="b5ija" d="M678.95 1233a1.4 1.4 0 0 0 .05-.356v-15.794a1.392 1.392 0 0 0-.292-.85L667 1223.735z"/><path id="b5ijb" d="M665.663 1225l-2.225 1.377-2.141-1.325L649 1233.98c.07.012.14.018.212.02h28.451a1.43 1.43 0 0 0 .337-.044z"/><path id="b5ijc" d="M660 1223.747L648.29 1216c-.187.24-.289.538-.29.845v15.704c.002.154.029.306.08.451z"/><path id="b5ijd" d="M632 1220c0-17.673 14.327-32 32-32 17.673 0 32 14.327 32 32 0 17.673-14.327 32-32 32-17.673 0-32-14.327-32-32z"/><path id="b5ijk" d="M672 1219h-17l3.17 2h10.614l3.216-2z"/><path id="b5ijl" d="M668 1221h-8l3.32 2h1.312l3.368-2z"/><path id="b5ijm" d="M654.282 1214.965h19.026v.892h-19.026zm0-2.807h19.026v.884h-19.026zm0 5.759v-.145h19.026v.228l4.692-2.84V1206h-28v9.287z"/><mask id="b5ijf" width="2" height="2" x="-1" y="-1"><path fill="#fff" d="M667 1216h12v17h-12z"/><use xlink:href="#b5ija"/></mask><filter id="b5ije" width="36" height="42" x="655" y="1204" filterUnits="userSpaceOnUse"><feOffset dy="1" in="SourceGraphic" result="FeOffset1258Out"/><feGaussianBlur in="FeOffset1258Out" result="FeGaussianBlur1259Out" stdDeviation="0.8 0.8"/></filter><mask id="b5ijh" width="2" height="2" x="-1" y="-1"><path fill="#fff" d="M649 1225h29v9h-29z"/><use xlink:href="#b5ijb"/></mask><filter id="b5ijg" width="53" height="34" x="637" y="1213" filterUnits="userSpaceOnUse"><feOffset dy="1" in="SourceGraphic" result="FeOffset1274Out"/><feGaussianBlur in="FeOffset1274Out" result="FeGaussianBlur1275Out" stdDeviation="0.8 0.8"/></filter><mask id="b5ijj" width="2" height="2" x="-1" y="-1"><path fill="#fff" d="M648 1216h12v17h-12z"/><use xlink:href="#b5ijc"/></mask><filter id="b5iji" width="36" height="42" x="636" y="1204" filterUnits="userSpaceOnUse"><feOffset dy="1" in="SourceGraphic" result="FeOffset1290Out"/><feGaussianBlur in="FeOffset1290Out" result="FeGaussianBlur1291Out" stdDeviation="0.8 0.8"/></filter></defs><g><g transform="translate(-632 -1188)"><g><use fill="#c7e8fd" xlink:href="#b5ijd"/></g><g><g><g filter="url(#b5ije)"><use fill="none" stroke-opacity=".25" stroke-width="0" mask="url(&quot;#b5ijf&quot;)" xlink:href="#b5ija"/><use fill="#265674" fill-opacity=".25" xlink:href="#b5ija"/></g><use fill="#fff" xlink:href="#b5ija"/></g><g><g filter="url(#b5ijg)"><use fill="none" stroke-opacity=".25" stroke-width="0" mask="url(&quot;#b5ijh&quot;)" xlink:href="#b5ijb"/><use fill="#265674" fill-opacity=".25" xlink:href="#b5ijb"/></g><use fill="#fff" xlink:href="#b5ijb"/></g><g><g filter="url(#b5iji)"><use fill="none" stroke-opacity=".25" stroke-width="0" mask="url(&quot;#b5ijj&quot;)" xlink:href="#b5ijc"/><use fill="#265674" fill-opacity=".25" xlink:href="#b5ijc"/></g><use fill="#fff" xlink:href="#b5ijc"/></g><g><use fill="#47b4f9" xlink:href="#b5ijk"/></g><g><use fill="#47b4f9" xlink:href="#b5ijl"/></g><g><use fill="#47b4f9" xlink:href="#b5ijm"/></g></g></g></g></svg>