<svg xmlns="http://www.w3.org/2000/svg" xmlns:xlink="http://www.w3.org/1999/xlink" width="64" height="64" viewBox="0 0 64 64"><defs><path id="zj0za" d="M212.712 1562.185l-9.637 8.1-2.635-2.153v-6.712h12.272z"/><path id="zj0zb" d="M212.712 1563.74l-9.637 8.099-2.635-2.153v9.166h12.272z"/><path id="zj0zc" d="M164 1570c0-17.673 14.327-32 32-32 17.673 0 32 14.327 32 32 0 17.673-14.327 32-32 32-17.673 0-32-14.327-32-32z"/><path id="zj0zd" d="M189.87 1567.052c-1.188.15-2.15 1.452-2.15 2.908 0 1.455.962 2.757 2.15 2.908 1.187.15 2.15-1.152 2.15-2.908 0-1.757-.963-3.059-2.15-2.908z"/><path id="zj0ze" d="M189.873 1574.644c-1.917-.242-3.471-2.341-3.471-4.687 0-2.345 1.554-4.444 3.471-4.686 1.918-.243 3.472 1.855 3.472 4.686s-1.554 4.93-3.472 4.687zm-8.533-15.93v22.768l17.542 3.162v-29.374z"/><mask id="zj0zg" width="2" height="2" x="-1" y="-1"><path fill="#fff" d="M200 1561h13v10h-13z"/><use xlink:href="#zj0za"/></mask><filter id="zj0zf" width="37" height="35" x="188" y="1549" filterUnits="userSpaceOnUse"><feOffset dy="1" in="SourceGraphic" result="FeOffset1423Out"/><feGaussianBlur in="FeOffset1423Out" result="FeGaussianBlur1424Out" stdDeviation="0.8 0.8"/></filter><mask id="zj0zi" width="2" height="2" x="-1" y="-1"><path fill="#fff" d="M200 1563h13v16h-13z"/><use xlink:href="#zj0zb"/></mask><filter id="zj0zh" width="37" height="41" x="188" y="1551" filterUnits="userSpaceOnUse"><feOffset dy="1" in="SourceGraphic" result="FeOffset1439Out"/><feGaussianBlur in="FeOffset1439Out" result="FeGaussianBlur1440Out" stdDeviation="0.8 0.8"/></filter></defs><g><g transform="translate(-164 -1538)"><g><use fill="#c7e8fd" xlink:href="#zj0zc"/></g><g><g><g><g><use fill="#47b4f9" xlink:href="#zj0zd"/></g><g><use fill="#47b4f9" xlink:href="#zj0ze"/></g></g><g><g filter="url(#zj0zf)"><use fill="none" stroke-opacity=".25" stroke-width="0" mask="url(&quot;#zj0zg&quot;)" xlink:href="#zj0za"/><use fill="#265674" fill-opacity=".25" xlink:href="#zj0za"/></g><use fill="#fff" xlink:href="#zj0za"/></g><g><g filter="url(#zj0zh)"><use fill="none" stroke-opacity=".25" stroke-width="0" mask="url(&quot;#zj0zi&quot;)" xlink:href="#zj0zb"/><use fill="#265674" fill-opacity=".25" xlink:href="#zj0zb"/></g><use fill="#fff" xlink:href="#zj0zb"/></g></g></g></g></g></svg>