<svg xmlns="http://www.w3.org/2000/svg" xmlns:xlink="http://www.w3.org/1999/xlink" width="32" height="32" viewBox="0 0 32 32">
    <defs>
        <path id="je5na" d="M339.5 3325h-31a.5.5 0 0 1-.5-.5c0-.28.23-.5.5-.5h31c.28 0 .5.23.5.5a.5.5 0 0 1-.5.5z"/>
        <path id="je5nb" d="M314.68 3325h-4a.5.5 0 0 1-.5-.5V3309c0-.28.23-.5.5-.5h4c.28 0 .5.23.5.5v15.5a.5.5 0 0 1-.5.5zm-3.5-1h3v-14.5h-3z"/>
        <path id="je5nc" d="M322.18 3325h-4a.5.5 0 0 1-.5-.5V3304c0-.28.23-.5.5-.5h4c.28 0 .5.23.5.5v20.5a.5.5 0 0 1-.5.5zm-3.5-1h3v-19.5h-3z"/>
        <path id="je5nd" d="M330.18 3325h-4a.5.5 0 0 1-.5-.5V3310c0-.28.23-.5.5-.5h4c.28 0 .5.23.5.5v14.5a.5.5 0 0 1-.5.5zm-3.5-1h3v-13.5h-3z"/>
        <path id="je5ne" d="M338.18 3325h-4a.5.5 0 0 1-.5-.5V3302c0-.28.23-.5.5-.5h4c.28 0 .5.23.5.5v22.5a.5.5 0 0 1-.5.5zm-3.5-1h3v-21.5h-3z"/>
        <path id="je5nf" d="M314.35 3301.9a.52.52 0 0 1-.43-.22.5.5 0 0 1 .15-.7l4.18-2.78a.5.5 0 0 1 .7.15.5.5 0 0 1-.15.7l-4.18 2.75a.38.38 0 0 1-.27.1z"/>
        <path id="je5ng" d="M329.6 3302.57a.5.5 0 0 1-.35-.15c-.2-.2-.2-.5 0-.7l5.08-5.07c.2-.2.5-.2.7 0 .2.2.2.5 0 .7l-5.08 5.1a.6.6 0 0 1-.35.13z"/>
        <path id="je5nh" d="M326.58 3302.8c-.1 0-.2-.03-.3-.1l-4.8-3.6c-.23-.18-.28-.48-.1-.7.17-.23.47-.28.7-.1l4.8 3.6c.22.17.27.47.1.7-.1.12-.25.2-.4.2z"/>
        <path id="je5ni" d="M312.68 3305a2.5 2.5 0 0 1-2.5-2.5 2.5 2.5 0 0 1 2.5-2.5 2.5 2.5 0 0 1 2.5 2.5 2.5 2.5 0 0 1-2.5 2.5zm0-4c-.82 0-1.5.68-1.5 1.5s.68 1.5 1.5 1.5 1.5-.68 1.5-1.5-.68-1.5-1.5-1.5z"/>
        <path id="je5nj" d="M320.18 3300a2.5 2.5 0 0 1-2.5-2.5 2.5 2.5 0 0 1 2.5-2.5 2.5 2.5 0 0 1 2.5 2.5 2.5 2.5 0 0 1-2.5 2.5zm0-4c-.82 0-1.5.68-1.5 1.5s.68 1.5 1.5 1.5 1.5-.68 1.5-1.5-.68-1.5-1.5-1.5z"/>
        <path id="je5nk" d="M328.18 3306a2.5 2.5 0 0 1-2.5-2.5 2.5 2.5 0 0 1 2.5-2.5 2.5 2.5 0 0 1 2.5 2.5 2.5 2.5 0 0 1-2.5 2.5zm0-4c-.82 0-1.5.68-1.5 1.5s.68 1.5 1.5 1.5 1.5-.68 1.5-1.5-.68-1.5-1.5-1.5z"/>
        <path id="je5nl" d="M336.18 3298a2.5 2.5 0 0 1-2.5-2.5 2.5 2.5 0 0 1 2.5-2.5 2.5 2.5 0 0 1 2.5 2.5 2.5 2.5 0 0 1-2.5 2.5zm0-4c-.82 0-1.5.68-1.5 1.5s.68 1.5 1.5 1.5 1.5-.68 1.5-1.5-.68-1.5-1.5-1.5z"/>
    </defs>
    <g>
        <g transform="translate(-308 -3293)">
            <g>
                <use fill="#4c7df6" xlink:href="#je5na"/>
            </g>
            <g>
                <use fill="#4c7df6" xlink:href="#je5nb"/>
            </g>
            <g>
                <use fill="#4c7df6" xlink:href="#je5nc"/>
            </g>
            <g>
                <use fill="#4c7df6" xlink:href="#je5nd"/>
            </g>
            <g>
                <use fill="#4c7df6" xlink:href="#je5ne"/>
            </g>
            <g>
                <use fill="#4c7df6" xlink:href="#je5nf"/>
            </g>
            <g>
                <use fill="#4c7df6" xlink:href="#je5ng"/>
            </g>
            <g>
                <use fill="#4c7df6" xlink:href="#je5nh"/>
            </g>
            <g>
                <use fill="#4c7df6" xlink:href="#je5ni"/>
            </g>
            <g>
                <use fill="#4c7df6" xlink:href="#je5nj"/>
            </g>
            <g>
                <use fill="#4c7df6" xlink:href="#je5nk"/>
            </g>
            <g>
                <use fill="#4c7df6" xlink:href="#je5nl"/>
            </g>
        </g>
    </g>
</svg>