<svg xmlns="http://www.w3.org/2000/svg" xmlns:xlink="http://www.w3.org/1999/xlink" width="34" height="34" viewBox="0 0 34 34">
    <defs>
        <path id="ceq0a" d="M333.78 3236.86a4.7 4.7 0 0 1-9.37 0 4.7 4.7 0 0 1 9.37 0zm-.87 0a3.8 3.8 0 0 0-6.43-2.66 3.8 3.8 0 0 0 0 5.32 3.8 3.8 0 0 0 5.33 0 3.8 3.8 0 0 0 1.1-2.66z"/>
        <path id="ceq0b"
              d="M339.25 3237.13c0 .14-.05.28-.14.37a23.46 23.46 0 0 1-9 11.03c.4 2.8-.5 5.51-2.53 7.53a8.87 8.87 0 0 1-10.02 1.8c-.18-.1-.27-.23-.27-.37 0-.19.04-.32.18-.42a7.85 7.85 0 0 0 3.4-5.14v-.05l-1.2-1.2c-2.02 1.75-4.4 3.18-6.01 3.18-.5 0-.92-.14-1.24-.46-1.34-1.29.46-4.6 2.7-7.21l-1-1.02h-.05a7.9 7.9 0 0 0-5.15 3.4c-.09.1-.22.19-.36.19h-.05c-.18-.05-.32-.14-.37-.28a8.93 8.93 0 0 1 1.8-10.01 8.71 8.71 0 0 1 7.4-2.53 27 27 0 0 1 3.12-3.81 23.57 23.57 0 0 1 8.13-5.33 21.14 21.14 0 0 1 11.4-1.2.5.5 0 0 1 .36.37c.65 3.77.23 7.63-1.1 11.16zm-2.8-10.93c-2.35 0-4.69.41-6.9 1.2l9.01 9a19.93 19.93 0 0 0 .96-9.97 23.13 23.13 0 0 0-3.07-.23zm-22.6 18.15h.04c.18-1.01.46-2.02.78-3.03.04-.1.04-.19.09-.23.5-1.52 1.2-2.95 2.02-4.32a7.9 7.9 0 0 0-6.25 2.34 8.16 8.16 0 0 0-1.88 8.36 8.81 8.81 0 0 1 5.2-3.12zm.96.27l5.14 5.15.05.05 1.38 1.37c.82-.18 1.65-.36 2.43-.6l-8.4-8.4c-.24.78-.47 1.6-.6 2.43zm4.22 5.47l-3.26-3.26c-2.43 2.8-3.35 5.33-2.71 5.97.64.64 3.17-.32 5.97-2.7zm10.25-1.01a22.74 22.74 0 0 1-7.58 2.9v.13a8.77 8.77 0 0 1-3.13 5.24 8.06 8.06 0 0 0 10.7-8.27zm8.96-11.76l-9.6-9.6c-2.8 1.1-5.38 2.8-7.59 5a23.2 23.2 0 0 0-5.37 8.5l9 9.05c3.17-1.1 6.02-2.89 8.5-5.37a22.61 22.61 0 0 0 5.06-7.58z"/>
    </defs>
    <g>
        <g transform="translate(-307 -3225)">
            <g>
                <use fill="#4c7df6" xlink:href="#ceq0a"/>
                <use fill="#fff" fill-opacity="0" stroke="#4c7df6" stroke-miterlimit="50" stroke-width=".5" xlink:href="#ceq0a"/>
            </g>
            <g>
                <use fill="#4c7df6" xlink:href="#ceq0b"/>
                <use fill="#fff" fill-opacity="0" stroke="#4c7df6" stroke-miterlimit="50" stroke-width=".5" xlink:href="#ceq0b"/>
            </g>
        </g>
    </g>
</svg>