<svg xmlns="http://www.w3.org/2000/svg" xmlns:xlink="http://www.w3.org/1999/xlink" width="32" height="32" viewBox="0 0 32 32">
    <defs>
        <path id="9b37a"
              d="M341 3170a16 16 0 1 1-32.01-.01 16 16 0 0 1 32.01.01zm-26.52-11.05l1.83 1.84a.37.37 0 1 1-.52.52l-1.84-1.83a15.2 15.2 0 0 0-4.2 10.15h2.6a.37.37 0 1 1 0 .74h-2.6c.13 5.1 2.74 9.6 6.7 12.27v-4.08c-.01-.18.12-.34.3-.37H333.18c.2 0 .37.16.37.37v4.08a15.23 15.23 0 0 0 6.68-12.27h-2.59a.37.37 0 1 1 0-.74h2.6a15.2 15.2 0 0 0-4.2-10.15l-1.84 1.83a.37.37 0 1 1-.52-.52l1.83-1.84a15.2 15.2 0 0 0-10.15-4.2v2.6a.37.37 0 1 1-.74 0v-2.6a15.2 15.2 0 0 0-10.15 4.2zm10.46 1c.2-.03.37.1.42.28l1.86 7.8c.82.94 1.02 2.33.36 3.46a3 3 0 0 1-2.51 1.48H325l-.13-.02a3 3 0 0 1-2.45-1.46 2.98 2.98 0 0 1 .36-3.46l1.86-7.8a.37.37 0 0 1 .3-.28zm-1.45 8.32a.37.37 0 0 1-.1.17 2.24 2.24 0 1 0 3.21 0 .37.37 0 0 1-.09-.17l-1.51-6.35zm-6.3 14.83a15.18 15.18 0 0 0 7.81 2.16c2.86 0 5.53-.79 7.81-2.16v-4.17H317.2z"/>
    </defs>
    <g>
        <g transform="translate(-309 -3154)">
            <use fill="#4c7df6" xlink:href="#9b37a"/>
            <use fill="#fff" fill-opacity="0" stroke="#4c7df6" stroke-miterlimit="50" stroke-width=".5" xlink:href="#9b37a"/>
        </g>
    </g>
</svg>