<svg xmlns="http://www.w3.org/2000/svg" xmlns:xlink="http://www.w3.org/1999/xlink" width="35" height="33" viewBox="0 0 35 33">
    <defs>
        <path id="nid4a"
              d="M883.97 3678h-3.84c-1.1 0-1.96-.91-1.96-2.03v-2.85c0-.32-.25-.64-.57-.76 0 0-.05 0-.09-.04-.08 0-.12-.04-.2-.08a.93.93 0 0 0-.9.16l-2.25 2.15c-.82.75-2.09.75-2.9 0l-2.78-2.7c-.41-.4-.62-.88-.62-1.43 0-.52.2-1.04.62-1.43l2.12-2.07a.7.7 0 0 0 .2-.71v-.12c-.16-.36-.52-.4-.77-.4h-3.1c-1.2 0-1.93-1.11-1.93-2.18v-3.74c0-1.15.82-2.02 1.92-2.02h3.11c.33 0 .65-.2.78-.48 0-.04.04-.08.04-.12l.04-.08c.12-.28.04-.63-.16-.87l-2.17-2.15a2 2 0 0 1 0-2.82l2.78-2.7a2.15 2.15 0 0 1 2.9 0l2.21 2.1c.25.25.61.29.9.17.04 0 .08-.04.16-.04l.09-.04c.32-.12.57-.44.57-.76v-3.01c0-1.12.86-1.95 1.96-1.95h3.84c1.1 0 1.93.83 1.93 1.95v3.01c0 .28.2.56.53.72l.16.04c.33.12.7.08.9-.16l2.13-2.07a2.1 2.1 0 0 1 2.94 0l2.78 2.7c.78.8.82 2.03 0 2.82l-2.16 2.15c-.25.24-.29.55-.17.87l.08.2c.13.32.41.48.78.48h2.99c1.18 0 2.2.95 2.2 2.02v3.74a2.31 2.31 0 0 1-2.2 2.18h-2.99c-.2 0-.61.04-.78.44l-.16.23c-.04.24.04.48.25.68l2.12 2.06c.41.36.62.88.62 1.43 0 .52-.2 1.04-.62 1.43l-2.74 2.66a2.1 2.1 0 0 1-2.94 0l-2.13-2.06c-.24-.24-.61-.28-.94-.16-.04 0-.08.04-.12.04-.33.16-.53.44-.53.72v2.9c0 1.07-.86 1.98-1.93 1.98zm-6.95-6.99a1.82 1.82 0 0 1 .86.2c.04 0 .12.04.17.04a2.01 2.01 0 0 1 1.34 1.87v2.85c0 .44.3.84.74.84h3.84c.45 0 .7-.44.7-.84v-2.9c0-.75.53-1.5 1.3-1.82.05 0 .09-.04.13-.04a2.05 2.05 0 0 1 2.25.44l2.13 2.06c.16.16.36.24.57.24.2 0 .45-.08.57-.24l2.74-2.66a.77.77 0 0 0 .25-.56c0-.2-.08-.43-.25-.55l-2.12-2.07a1.98 1.98 0 0 1-.45-2.22l.16-.4h.12c.37-.47.94-.71 1.64-.71h2.98c.45 0 .98-.52.98-1v-3.73c0-.4-.49-.83-.98-.83h-2.98c-.86 0-1.6-.48-1.92-1.23l-.09-.16a1.91 1.91 0 0 1 .45-2.15l2.17-2.14a.8.8 0 0 0 0-1.15l-2.62-2.74a.82.82 0 0 0-.57-.24c-.2 0-.45.08-.57.24l-2.13 2.06c-.57.56-1.43.76-2.2.44-.05 0-.13-.04-.17-.04a2.06 2.06 0 0 1-1.3-1.83v-3.01c0-.36-.21-.76-.7-.76h-3.85c-.45 0-.73.32-.73.76v3.01c0 .8-.54 1.55-1.35 1.87-.04 0-.08.04-.13.04-.04 0-.04.04-.08.04-.77.32-1.63.12-2.2-.44l-2.21-2.1a.86.86 0 0 0-1.19 0l-2.78 2.7a.8.8 0 0 0 0 1.15l2.17 2.14a2 2 0 0 1 .45 2.15l-.09.16a2.42 2.42 0 0 1-2.04 1.19h-3.07c-.45 0-.7.4-.7.83v3.74c0 .47.3.99.7.99h3.07c.78 0 1.39.32 1.76.87h.04l.12.24c.33.75.17 1.63-.4 2.18l-2.13 2.07a.77.77 0 0 0-.25.56c0 .2.08.4.25.55l2.78 2.7c.32.32.86.32 1.18 0l2.25-2.14c.33-.32.86-.52 1.4-.52z"/>
        <path id="nid4b" d="M882.15 3668.65a6.51 6.51 0 0 1 0-13 6.51 6.51 0 0 1 0 13zm0-11.8a5.34 5.34 0 1 0 .02 10.69 5.34 5.34 0 0 0-.02-10.68z"/>
    </defs>
    <g>
        <g transform="translate(-865 -3645)">
            <g>
                <use fill="#5683f7" xlink:href="#nid4a"/>
                <use fill="#fff" fill-opacity="0" stroke="#4b7af7" stroke-miterlimit="50" stroke-width=".2" xlink:href="#nid4a"/>
            </g>
            <g>
                <use fill="#5683f7" xlink:href="#nid4b"/>
                <use fill="#fff" fill-opacity="0" stroke="#4b7af7" stroke-miterlimit="50" stroke-width=".2" xlink:href="#nid4b"/>
            </g>
        </g>
    </g>
</svg>