<svg xmlns="http://www.w3.org/2000/svg" xmlns:xlink="http://www.w3.org/1999/xlink" width="64" height="64" viewBox="0 0 64 64"><defs><path id="i3uoa" d="M1129.008 1576a.999.999 0 1 1-1.008.998.99.99 0 0 1 .294-.708.975.975 0 0 1 .71-.29zm-7-2.874a1 1 0 1 1 1.984-.252 1 1 0 0 1-1.984.252zm.984-3.122a1 1 0 0 1-1.003.996 1 1 0 1 1 1.011-.996zm2.873-5.507a1 1 0 1 1-1.83.24 1 1 0 0 1 .475-.606 1.004 1.004 0 0 1 1.37.378zm-1.902 2.239a.998.998 0 0 1-.35 1.057.99.99 0 0 1-1.108.07 1 1 0 0 1-.374-1.364.992.992 0 0 1 1.821.245zm1.307 10.228a1.002 1.002 0 0 1-1.14-1.462.999.999 0 0 1 1.35-.377c.485.268.662.88.396 1.366-.131.232-.35.402-.606.473z"/><path id="i3uob" d="M1132.457 1569.957l.638-.627a2.744 2.744 0 0 1 2.905-.599c-.736-3.345-3.75-5.733-7.237-5.731a.756.756 0 0 0-.763.749v6.502c0 .414.342.749.763.749h3.036c.133-.393.359-.75.658-1.043z"/><path id="i3uoc" d="M1116.027 1571.27a12.536 12.536 0 0 0 5.604 9.62 12.731 12.731 0 0 0 11.102 1.438l-.32-.318a2.686 2.686 0 0 1-.767-2.295c-5.127 1.627-10.616-1.154-12.295-6.23-1.68-5.074 1.08-10.544 6.18-12.25 5.101-1.705 10.633.991 12.391 6.04.216-.055.437-.084.66-.086h.889c.545 0 1.078.163 1.529.467-1.183-5.13-5.457-8.988-10.714-9.674v-1.75h1.41a.475.475 0 0 0 .478-.473v-2.286a.475.475 0 0 0-.477-.473h-6.079a.475.475 0 0 0-.476.473v2.283a.471.471 0 0 0 .476.473h1.411v1.75c-6.624.859-11.437 6.674-11.002 13.29z"/><path id="i3uod" d="M1097 1570c0-17.673 14.327-32 32-32 17.673 0 32 14.327 32 32 0 17.673-14.327 32-32 32-17.673 0-32-14.327-32-32z"/><path id="i3uoe" d="M1146 1576.436a.805.805 0 0 1-.667.792l-1.048.185a5.432 5.432 0 0 1-.542 1.307l.61.872a.805.805 0 0 1-.09 1.032l-.639.638a.804.804 0 0 1-1.03.09l-.872-.61c-.41.237-.85.42-1.306.543l-.185 1.047a.805.805 0 0 1-.795.668h-.872a.805.805 0 0 1-.795-.668l-.185-1.047a5.426 5.426 0 0 1-1.306-.543l-.871.61a.804.804 0 0 1-1.032-.09l-.638-.638a.805.805 0 0 1-.09-1.032l.61-.872c-.237-.41-.42-.85-.543-1.307l-1.047-.185a.805.805 0 0 1-.667-.792v-.872c0-.391.282-.725.667-.792l1.047-.185c.124-.458.306-.897.543-1.307l-.61-.872a.805.805 0 0 1 .09-1.032l.638-.638a.804.804 0 0 1 1.032-.09l.871.61c.41-.237.849-.42 1.306-.543l.185-1.047a.805.805 0 0 1 .795-.668h.888a.805.805 0 0 1 .795.668l.185 1.047c.457.124.896.306 1.306.543l.871-.61a.804.804 0 0 1 1.031.09l.639.638a.805.805 0 0 1 .09 1.032l-.623.856c.237.41.42.85.543 1.307l1.047.185c.39.069.671.412.664.808zm-4-.436a3 3 0 1 0-6 0 3 3 0 0 0 6 0z"/><path id="i3uol" d="M1125 1553.5a.5.5 0 0 1 .5-.5h6a.5.5 0 0 1 .5.5v2a.5.5 0 0 1-.5.5h-6a.5.5 0 0 1-.5-.5z"/><mask id="i3uog" width="2" height="2" x="-1" y="-1"><path fill="#fff" d="M1121 1564h9v14h-9z"/><use xlink:href="#i3uoa"/></mask><filter id="i3uof" width="33" height="39" x="1109" y="1552" filterUnits="userSpaceOnUse"><feOffset dy="1" in="SourceGraphic" result="FeOffset1504Out"/><feGaussianBlur in="FeOffset1504Out" result="FeGaussianBlur1505Out" stdDeviation="0.8 0.8"/></filter><mask id="i3uoi" width="2" height="2" x="-1" y="-1"><path fill="#fff" d="M1128 1563h8v8h-8z"/><use xlink:href="#i3uob"/></mask><filter id="i3uoh" width="32" height="33" x="1116" y="1551" filterUnits="userSpaceOnUse"><feOffset dy="1" in="SourceGraphic" result="FeOffset1520Out"/><feGaussianBlur in="FeOffset1520Out" result="FeGaussianBlur1521Out" stdDeviation="0.8 0.8"/></filter><mask id="i3uok" width="2" height="2" x="-1" y="-1"><path fill="#fff" d="M1116 1553h25v30h-25z"/><use xlink:href="#i3uoc"/></mask><filter id="i3uoj" width="49" height="55" x="1104" y="1541" filterUnits="userSpaceOnUse"><feOffset dy="1" in="SourceGraphic" result="FeOffset1536Out"/><feGaussianBlur in="FeOffset1536Out" result="FeGaussianBlur1537Out" stdDeviation="0.8 0.8"/></filter></defs><g><g transform="translate(-1097 -1538)"><g><use fill="#c7e8fd" xlink:href="#i3uod"/></g><g><g><use fill="#47b4f9" xlink:href="#i3uoe"/></g><g><g filter="url(#i3uof)"><use fill="none" stroke-opacity=".25" stroke-width="0" mask="url(&quot;#i3uog&quot;)" xlink:href="#i3uoa"/><use fill="#265674" fill-opacity=".25" xlink:href="#i3uoa"/></g><use fill="#47b4f9" xlink:href="#i3uoa"/></g><g><g filter="url(#i3uoh)"><use fill="none" stroke-opacity=".25" stroke-width="0" mask="url(&quot;#i3uoi&quot;)" xlink:href="#i3uob"/><use fill="#265674" fill-opacity=".25" xlink:href="#i3uob"/></g><use fill="#fff" xlink:href="#i3uob"/></g><g><g filter="url(#i3uoj)"><use fill="none" stroke-opacity=".25" stroke-width="0" mask="url(&quot;#i3uok&quot;)" xlink:href="#i3uoc"/><use fill="#265674" fill-opacity=".25" xlink:href="#i3uoc"/></g><use fill="#fff" xlink:href="#i3uoc"/></g><g><use fill="#47b4f9" xlink:href="#i3uol"/></g></g></g></g></svg>