<svg xmlns="http://www.w3.org/2000/svg" xmlns:xlink="http://www.w3.org/1999/xlink" width="30" height="34" viewBox="0 0 30 34">
    <defs>
        <path id="4296a" d="M882 3436.78c.86 0 1.56.7 1.56 1.56h1.56a3.12 3.12 0 0 0-6.24 0h1.56c0-.86.7-1.56 1.56-1.56z"/>
        <path id="4296b" d="M881.99 3467.22c-.99 0-1.9-.34-2.5-.94a1.98 1.98 0 0 1-.62-1.4h-1.56c0 .91.38 1.8 1.08 2.5.89.9 2.2 1.4 3.6 1.4 2.58 0 4.68-1.75 4.69-3.9h-1.57c0 1.3-1.4 2.34-3.12 2.34z"/>
        <path id="4296c"
              d="M896.05 3461.52v.45l-.5.23c-3.3 1.84-7.67 2.7-13.59 2.7-5.91 0-10.24-.86-13.54-2.7l-.47-.23v-.45c0-.2.04-.45.02-.74-.1-1.1-.19-2.76.53-4.08l.09-.13c.21-.26.47-.5.74-.74 1.05-.97 2.48-2.3 2.8-6.23.41-5.2 3.94-10.48 9.87-10.48 5.92 0 9.45 5.27 9.87 10.48.3 3.92 1.75 5.26 2.8 6.23.27.25.52.48.73.74l.13.13c.72 1.32.6 2.98.5 4.08-.03.29.02.54.02.74zm-1.89-4c-.15-.17-.34-.34-.55-.55-1.17-1.08-2.94-2.72-3.3-7.24-.35-4.36-3.1-9.05-8.31-9.05-5.22 0-7.97 4.7-8.32 9.05-.36 4.52-2.12 6.16-3.3 7.24-.2.2-.4.38-.54.54-.45.9-.34 2.19-.25 3.12l.04.4c3.01 1.58 6.96 2.31 12.37 2.31 5.4 0 9.35-.73 12.37-2.3l.03-.4c.09-.94.2-2.22-.24-3.13z"/>
    </defs>
    <g>
        <g transform="translate(-867 -3435)">
            <g>
                <use fill="#5b86f7" xlink:href="#4296a"/>
            </g>
            <g>
                <use fill="#5b86f7" xlink:href="#4296b"/>
            </g>
            <g>
                <use fill="#5b86f7" xlink:href="#4296c"/>
            </g>
        </g>
    </g>
</svg>