<svg xmlns="http://www.w3.org/2000/svg" xmlns:xlink="http://www.w3.org/1999/xlink" width="38" height="20" viewBox="0 0 38 20">
    <defs>
        <path id="4jtva"
              d="M881.05 3088.81l-4.21 3.65c1.66 4.06 5.34 6.74 9.83 7.92 4.6 1.21 10 .85 14.72-1.2.2-.07.43 0 .54.18.11.17.09.42-.05.57-5.05 4.92-11.12 8.1-18.32 7.3-5.2-1.2-8.71-3.93-11.76-5.34l-1.2 5.75a.46.46 0 0 1-.4.36.46.46 0 0 1-.45-.32l-5.73-17.72c-.08-.26.11-.57.37-.6l16.34-1.36c.38-.04.62.57.32.81zm-16.02 1.42l5.05 15.57.97-4.67c.05-.25.36-.42.6-.32 3.35 1.42 6.85 4.3 12.12 5.53 4.68.98 11.6-2.04 15.88-5.62a23.7 23.7 0 0 1-13.2.54c-4.8-1.27-8.85-4.2-10.58-8.76-.06-.18 0-.4.14-.5l3.42-2.98z"/>
    </defs>
    <g>
        <g transform="translate(-864 -3088)">
            <use fill="#4c7df6" xlink:href="#4jtva"/>
            <use fill="#fff" fill-opacity="0" stroke="#4a79f9" stroke-miterlimit="50" stroke-width=".5" xlink:href="#4jtva"/>
        </g>
    </g>
</svg>