<svg xmlns="http://www.w3.org/2000/svg" xmlns:xlink="http://www.w3.org/1999/xlink" width="41" height="29" viewBox="0 0 41 29">
    <defs>
        <path id="jjl3a"
              d="M901.44 3592.35h-1.62v9.02a2.59 2.59 0 0 1-2.55 2.63h-2.54a2.59 2.59 0 0 1-2.55-2.63v-9.02h-1.62c-1.4 0-1.96-.85-1.26-2.09l5.44-7.33c.35-.62.8-.93 1.26-.93.46 0 .91.31 1.26.93l5.44 7.33c.7 1.24.13 2.1-1.26 2.1zm.14-1.46l-5.44-7.33c-.05-.1-.1-.16-.14-.2-.04.04-.09.1-.14.2l-5.42 7.29s-.17.2.12.2h2.9v10.32c0 .73.57 1.34 1.27 1.34h2.54c.7 0 1.28-.61 1.28-1.34v-10.31h2.89c.29 0 .14-.17.14-.17z"/>
        <path id="jjl3b"
              d="M888.44 3585.35h-1.62v9.02a2.59 2.59 0 0 1-2.55 2.63h-2.54a2.59 2.59 0 0 1-2.55-2.63v-9.02h-1.62c-1.4 0-1.96-.85-1.26-2.09l5.44-7.33c.35-.62.8-.93 1.26-.93.46 0 .91.31 1.26.93l5.44 7.33c.7 1.24.13 2.1-1.26 2.1zm.14-1.46l-5.44-7.33c-.05-.1-.1-.16-.14-.2-.04.04-.09.1-.14.2l-5.42 7.29s-.17.2.12.2h2.9v10.32c0 .73.57 1.34 1.27 1.34h2.54c.7 0 1.28-.61 1.28-1.34v-10.31h2.89c.29 0 .14-.17.14-.17z"/>
        <path id="jjl3c"
              d="M875.7 3590.26c.7 1.24.13 2.1-1.26 2.1h-1.62v9.01a2.59 2.59 0 0 1-2.55 2.63h-2.54a2.59 2.59 0 0 1-2.55-2.63v-9.02h-1.62c-1.4 0-1.96-.85-1.26-2.09l5.44-7.33c.35-.62.8-.93 1.26-.93.46 0 .91.31 1.26.93zm-1.12.63l-5.44-7.33c-.05-.1-.1-.16-.14-.2-.04.04-.09.1-.14.2l-5.42 7.29s-.17.2.12.2h2.9v10.32c0 .73.57 1.34 1.27 1.34h2.54c.7 0 1.28-.61 1.28-1.34v-10.31h2.89c.29 0 .14-.17.14-.17z"/>
    </defs>
    <g>
        <g transform="translate(-862 -3575)">
            <g>
                <use fill="#4c7df6" xlink:href="#jjl3a"/>
            </g>
            <g>
                <use fill="#4c7df6" xlink:href="#jjl3b"/>
            </g>
            <g>
                <use fill="#4c7df6" xlink:href="#jjl3c"/>
            </g>
        </g>
    </g>
</svg>