<svg xmlns="http://www.w3.org/2000/svg" xmlns:xlink="http://www.w3.org/1999/xlink" width="33" height="33" viewBox="0 0 33 33">
    <defs>
        <path id="uj38a" d="M899 3732.5c0 9.1-7.4 16.5-16.5 16.5s-16.5-7.4-16.5-16.5 7.4-16.5 16.5-16.5 16.5 7.4 16.5 16.5zm-1.22 0a15.3 15.3 0 0 0-15.28-15.28 15.3 15.3 0 0 0-15.28 15.28 15.3 15.3 0 0 0 15.28 15.28 15.3 15.3 0 0 0 15.28-15.28z"/>
        <path id="uj38b" d="M888.7 3731.98c0 .2-.1.4-.28.51l-9.1 6.1a.6.6 0 0 1-.94-.51v-12.19a.6.6 0 0 1 .94-.5l9.1 6.09c.17.11.27.3.27.5zm-1.7 0l-7.4-4.95v9.9z"/>
    </defs>
    <g>
        <g transform="translate(-866 -3716)">
            <g>
                <use fill="#4c7cf6" xlink:href="#uj38a"/>
            </g>
            <g>
                <use fill="#4b7af7" xlink:href="#uj38b"/>
            </g>
        </g>
    </g>
</svg>