<svg xmlns="http://www.w3.org/2000/svg" xmlns:xlink="http://www.w3.org/1999/xlink" width="32" height="30" viewBox="0 0 32 30">
    <defs>
        <path id="lmv9a"
              d="M311.74 3717.02c-.45.07-.81.24-1.14.54-.31.3-.5.66-.57 1.08a2131 2131 0 0 0 0 21.43c.03.21.08.35.17.54.29.55.77.9 1.44 1.06.1.03.48.03 5.51.03h5.4v4.41h-1.88l-1.88.01v.88h14.43v-.88h-3.46v-4.41H335c4.98-.01 5.25-.01 5.37-.04a2.05 2.05 0 0 0 1.44-1.07c.09-.18.13-.32.17-.53.02-.13.02-1.53.02-10.72 0-11.41 0-10.68-.08-10.97a2.3 2.3 0 0 0-.33-.61 2.23 2.23 0 0 0-.48-.44c-.16-.1-.43-.21-.58-.25-.31-.09.71-.08-14.55-.08-11.35 0-14.14 0-14.24.02zm28.49.9c.39.1.7.38.8.74.02.12.02.21.02 9.08v8.96h-30.1v-8.96c0-8.87 0-8.96.03-9.08.1-.36.4-.65.79-.74.12-.03.4-.03 14.22-.03 14 0 14.11 0 14.24.03zm.82 20.84c0 1.11 0 1.17-.03 1.29a.92.92 0 0 1-.3.46c-.15.15-.3.23-.5.28-.12.03-.24.03-14.22.03s-14.1 0-14.23-.03c-.2-.05-.34-.13-.5-.28a.92.92 0 0 1-.29-.46 6.53 6.53 0 0 1-.03-1.3v-1.16h30.1zm-12.23 2.97V3746.11h-5.32v-4.4h2.65c2.52 0 2.66 0 2.67.02z"/>
    </defs>
    <g>
        <g transform="translate(-310 -3717)">
            <use fill="#4c7df6" xlink:href="#lmv9a"/>
            <use fill="#fff" fill-opacity="0" stroke="#4c7df6" stroke-miterlimit="50" stroke-width=".5" xlink:href="#lmv9a"/>
        </g>
    </g>
</svg>