<svg xmlns="http://www.w3.org/2000/svg" xmlns:xlink="http://www.w3.org/1999/xlink" width="27" height="30" viewBox="0 0 27 30">
    <defs>
        <path id="6yxka"
              d="M875.27 3024.57s-.16.1-.24.33c-.12.38.03.99.42 1.7a1.52 1.52 0 0 1 .7.8c.3 1.02 2.3 4.78 4.98 4.78 2.68 0 4.68-3.76 4.97-4.77.1-.41.43-.61.59-.7l.1-.08c.58-1.13.5-1.65.43-1.82a.37.37 0 0 0-.19-.23.8.8 0 0 1-.57-.83c0-.01.08-1.52-.3-2.9-.03-.12-.96-3.18-5.03-3.18s-5 3.06-5.04 3.19c-.37 1.37-.29 2.88-.29 2.9.02.35-.2.68-.53.81zm-.69 3.47c-.2-.13-.44-.3-.63-.65-.65-1.18-.82-2.22-.51-3.08.16-.44.42-.74.65-.95 0-.63.06-1.8.36-2.94.42-1.53 2.36-4.42 6.68-4.42 4.33 0 6.26 2.89 6.68 4.42.3 1.12.36 2.27.36 2.91.23.19.45.45.6.8.37.84.21 1.94-.48 3.26-.19.37-.45.57-.62.68-.26.7-.99 2.2-2.14 3.5.35.27 1.5 1.1 3.3 1.76 5.1 1.9 5.96 6.52 6.17 9.83.04.73-.25 1.5-.79 2.05-.48.51-1.11.79-1.76.79h-21.9c-.65 0-1.27-.28-1.75-.78a2.85 2.85 0 0 1-.8-2.1c.21-3.52 1.1-7.8 6.18-9.69a11.58 11.58 0 0 0 2.86-1.52 11.9 11.9 0 0 1-2.46-3.87zm6.55 5.81a5.09 5.09 0 0 1-2.76-.84c-.5.4-1.72 1.3-3.6 1.99-3.28 1.22-4.8 3.68-5.07 8.21-.02.3.12.64.34.87.09.1.27.25.51.25h21.9c.24 0 .43-.17.53-.26.21-.23.33-.54.32-.81-.29-4.59-1.85-7.17-5.08-8.37a13.94 13.94 0 0 1-3.93-2.16 5.24 5.24 0 0 1-3.16 1.12z"/>
    </defs>
    <g>
        <g transform="translate(-868 -3016)">
            <use fill="#4c7df6" xlink:href="#6yxka"/>
        </g>
    </g>
</svg>