<svg xmlns="http://www.w3.org/2000/svg" xmlns:xlink="http://www.w3.org/1999/xlink" width="33" height="29" viewBox="0 0 33 29">
    <defs>
        <path id="c89ya"
              d="M320.36 3026.82s-.14.07-.2.28c-.1.32.02.83.36 1.44a1.3 1.3 0 0 1 .6.68c.26.86 1.96 4.05 4.25 4.05s4-3.2 4.25-4.05c.09-.34.36-.51.5-.6.07-.04.07-.04.08-.06.5-.95.43-1.4.37-1.54a.32.32 0 0 0-.16-.2.67.67 0 0 1-.49-.7 9 9 0 0 0-.25-2.46c-.03-.1-.82-2.7-4.3-2.7s-4.27 2.6-4.3 2.7a8.98 8.98 0 0 0-.25 2.46c.01.3-.17.58-.46.7zm-.58 2.94c-.17-.11-.38-.26-.54-.55-.56-1-.7-1.89-.44-2.62.14-.37.36-.63.56-.8 0-.54.04-1.53.3-2.5a5.34 5.34 0 0 1 3.34-3.36c-.33-.76-1.4-2.51-4.17-2.51-3.48 0-4.27 2.6-4.3 2.7a9.02 9.02 0 0 0-.25 2.46.7.7 0 0 1-.45.7s-.14.07-.21.28c-.1.33.02.84.36 1.44l.06.05c.13.09.38.24.52.57l.02.08a8.74 8.74 0 0 0 2.7 3.28.7.7 0 0 1 .34.59.7.7 0 0 1-.32.6c-.08.05-1.84 1.2-3.9 1.95-2.8 1.03-2.98 2.9-2.94 5.62 0 .43.38.88.73.88h3.73c.7-1.76 2-3.36 4.5-4.28a9.92 9.92 0 0 0 2.45-1.3 10.1 10.1 0 0 1-2.1-3.28zm5.6-10.22c.45 0 .88.04 1.27.1.46-1.4 2.07-3.64 5.52-3.64 3.7 0 5.35 2.45 5.7 3.75.27.97.31 1.96.31 2.5.2.18.42.44.56.81.27.73.12 1.61-.44 2.62-.17.31-.4.46-.54.55a9.38 9.38 0 0 1-2.34 3.25c.67.4 1.65.93 2.69 1.31 3.97 1.47 3.92 4.65 3.88 6.97-.02 1.21-1.03 2.28-2.18 2.28h-2.94c.2.88.3 1.76.35 2.55.04.62-.21 1.27-.67 1.74a2.1 2.1 0 0 1-1.51.67h-18.71c-.55 0-1.09-.23-1.5-.66a2.41 2.41 0 0 1-.68-1.79c.05-.8.14-1.66.34-2.51h-3.3c-1.15 0-2.16-1.07-2.18-2.28-.04-2.32-.09-5.5 3.88-6.97 1.06-.39 2.06-.9 2.73-1.28a10.94 10.94 0 0 1-2.38-3.28 1.51 1.51 0 0 1-.54-.55c-.56-1.01-.7-1.9-.44-2.62.14-.37.36-.63.56-.8 0-.55.04-1.54.3-2.5.36-1.3 2.02-3.76 5.71-3.76a5.73 5.73 0 0 1 5.6 3.6c.3-.04.61-.06.94-.06zm5.7 3.75c.25.95.3 1.93.3 2.47.2.16.4.39.52.68.32.72.18 1.65-.4 2.77-.17.31-.4.48-.54.57-.23.6-.84 1.88-1.83 2.98.3.22 1.28.92 2.81 1.49a7.32 7.32 0 0 1 4.5 4.37h3.37c.35 0 .72-.45.73-.88.04-2.72-.14-4.59-2.94-5.62a19.4 19.4 0 0 1-3.92-2.05.7.7 0 0 1 .12-1.22c1.23-.55 2.47-2.66 2.62-3.15l.02-.08c.14-.33.39-.48.52-.57l.06-.04c.34-.61.46-1.12.36-1.45a.5.5 0 0 0-.23-.3.75.75 0 0 1-.43-.68c0-.01.07-1.3-.25-2.46-.03-.1-.82-2.7-4.3-2.7-2.94 0-3.89 1.97-4.12 2.64a5.3 5.3 0 0 1 3.03 3.23zm-5.7 11.4c-.9 0-1.68-.28-2.37-.72-.43.35-1.47 1.1-3.07 1.7-2.8 1.03-4.1 3.12-4.34 6.97-.01.25.1.53.29.73.08.08.24.21.44.21h18.7c.22 0 .38-.14.46-.22.19-.2.3-.45.28-.69a13.2 13.2 0 0 0-.45-2.8.7.7 0 0 1-.24-.72 5.86 5.86 0 0 0-3.65-3.58 11.93 11.93 0 0 1-3.36-1.83 4.5 4.5 0 0 1-2.7.95z"/>
    </defs>
    <g>
        <g transform="translate(-309 -3016)">
            <use fill="#4c7df6" xlink:href="#c89ya"/>
        </g>
    </g>
</svg>