<svg xmlns="http://www.w3.org/2000/svg" xmlns:xlink="http://www.w3.org/1999/xlink" width="64" height="64" viewBox="0 0 64 64"><defs><path id="gl8fa" d="M1139.833 1235.677a3.691 3.691 0 0 0 0-1.288l.754-.758-.754-1.894h-1.056c-.227-.303-.604-.606-.906-.909v-1.06l-1.886-.758-.755.758a3.648 3.648 0 0 0-1.283 0l-.754-.758-1.887.758v1.06c-.301.227-.603.606-.905.91h-1.056l-.755 1.893.755.758a3.692 3.692 0 0 0 0 1.288l-.755.757.755 1.894h1.056c.226.303.604.606.905.91v1.06l1.887.758.754-.758c.453.076.83.076 1.283 0l.755.758 1.886-.758v-1.06c.302-.228.604-.607.906-.91h1.056l.754-1.894-.754-.757zm-6.037 1.593c-1.282-.53-1.886-1.972-1.358-3.185.528-1.29 1.962-1.896 3.17-1.366 1.282.531 1.886 1.973 1.358 3.186-.529 1.29-1.962 1.896-3.17 1.365z"/><path id="gl8fb" d="M1150.278 1226.056a3.765 3.765 0 0 0 0-1.319l.775-.775-.775-1.94h-1.086c-.233-.31-.62-.62-.931-.93v-1.086l-1.94-.776-.775.776a3.768 3.768 0 0 0-1.319 0l-.775-.776-1.94.776v1.086c-.31.232-.62.62-.93.93h-1.086l-.776 1.94.776.775a3.765 3.765 0 0 0 0 1.32l-.776.775.776 1.939h1.086c.232.31.62.62.93.93v1.087l1.94.775.775-.775c.466.077.854.077 1.319 0l.776.775 1.939-.775v-1.086c.31-.233.62-.62.93-.931h1.087l.775-1.94-.775-.775zm-6.283 1.707c-1.319-.543-1.94-2.017-1.397-3.258.543-1.319 2.017-1.94 3.258-1.397 1.319.543 1.94 2.017 1.396 3.258-.465 1.319-1.939 1.94-3.257 1.396z"/><path id="gl8fd" d="M1099 1220c0-17.673 14.327-32 32-32 17.673 0 32 14.327 32 32 0 17.673-14.327 32-32 32-17.673 0-32-14.327-32-32z"/><path id="gl8fc" d="M1115 1205.03h25.598v25.529H1115z"/><path id="gl8ff" d="M1138.42 1214.849a10.957 10.957 0 0 0-1.018-2.546l.872-2.036-3.054-2.982-2.037.873c-.8-.437-1.6-.8-2.546-1.019l-.727-2.109h-4.291l-.8 2.11c-.873.217-1.746.581-2.546 1.018l-2.036-.873-2.982 2.982.873 2.036c-.437.8-.8 1.6-1.019 2.546l-2.109.8v4.291l2.11.8c.217.873.581 1.746 1.018 2.546l-.873 2.036 3.054 2.982 2.037-.872c.8.436 1.6.8 2.546 1.018l.8 2.109h4.218l.8-2.11a10.956 10.956 0 0 0 2.546-1.017l2.036.872 3.055-2.982-.873-2.036c.437-.8.8-1.6 1.019-2.546l2.109-.8v-4.291l-2.182-.8zm-10.692 8.146a5.215 5.215 0 0 1-5.237-5.237 5.215 5.215 0 0 1 5.237-5.237 5.215 5.215 0 0 1 5.237 5.237 5.215 5.215 0 0 1-5.237 5.237z"/><path id="gl8fk" d="M1122.59 1217.81a5.22 5.22 0 1 1 10.44 0 5.22 5.22 0 0 1-10.44 0z"/><path id="gl8fl" d="M1142.51 1225.4a2.37 2.37 0 1 1 4.74 0 2.37 2.37 0 0 1-4.74 0z"/><path id="gl8fm" d="M1132.08 1234.88a2.37 2.37 0 1 1 4.74 0 2.37 2.37 0 0 1-4.74 0z"/><mask id="gl8fh" width="2" height="2" x="-1" y="-1"><path fill="#fff" d="M1128 1229h13v13h-13z"/><use xlink:href="#gl8fa"/></mask><filter id="gl8fg" width="37" height="38" x="1116" y="1217" filterUnits="userSpaceOnUse"><feOffset dy="1" in="SourceGraphic" result="FeOffset1349Out"/><feGaussianBlur in="FeOffset1349Out" result="FeGaussianBlur1350Out" stdDeviation="0.8 0.8"/></filter><mask id="gl8fj" width="2" height="2" x="-1" y="-1"><path fill="#fff" d="M1138 1219h14v13h-14z"/><use xlink:href="#gl8fb"/></mask><filter id="gl8fi" width="38" height="38" x="1126" y="1207" filterUnits="userSpaceOnUse"><feOffset dy="1" in="SourceGraphic" result="FeOffset1365Out"/><feGaussianBlur in="FeOffset1365Out" result="FeGaussianBlur1366Out" stdDeviation="0.8 0.8"/></filter><clipPath id="gl8fe"><use xlink:href="#gl8fc"/></clipPath></defs><g><g transform="translate(-1099 -1188)"><g><use fill="#c7e8fd" xlink:href="#gl8fd"/></g><g><g><g><g/><g clip-path="url(#gl8fe)"><use fill="#47b4f9" xlink:href="#gl8ff"/></g></g><g><g><g filter="url(#gl8fg)"><use fill="none" stroke-opacity=".25" stroke-width="0" mask="url(&quot;#gl8fh&quot;)" xlink:href="#gl8fa"/><use fill="#265674" fill-opacity=".25" xlink:href="#gl8fa"/></g><use fill="#fff" xlink:href="#gl8fa"/></g></g><g><g filter="url(#gl8fi)"><use fill="none" stroke-opacity=".25" stroke-width="0" mask="url(&quot;#gl8fj&quot;)" xlink:href="#gl8fb"/><use fill="#265674" fill-opacity=".25" xlink:href="#gl8fb"/></g><use fill="#fff" xlink:href="#gl8fb"/></g></g><g opacity=".9"><use fill="#fff" fill-opacity="0" stroke="#fff" stroke-miterlimit="50" stroke-width="2" xlink:href="#gl8fk"/></g><g opacity=".9"><use fill="#fff" fill-opacity="0" stroke="#47b4f9" stroke-miterlimit="50" xlink:href="#gl8fl"/></g><g opacity=".9"><use fill="#fff" fill-opacity="0" stroke="#47b4f9" stroke-miterlimit="50" xlink:href="#gl8fm"/></g></g></g></g></svg>