<svg xmlns="http://www.w3.org/2000/svg" xmlns:xlink="http://www.w3.org/1999/xlink" width="28" height="32" viewBox="0 0 28 32">
    <defs>
        <path id="s60la"
              d="M339 3452.05c0 .22-.1.38-.21.48l-2.58 2.51v12.32c0 .37-.27.64-.65.64h-23.92a.62.62 0 0 1-.64-.64v-30.72c0-.37.27-.64.64-.64h23.87c.37 0 .64.27.64.64v12.48l2.58 2.5c.16.11.22.27.27.43zm-4.08 4.22l-6.18 6.08c-.11.1-.27.16-.43.16l-2.53-.06a.65.65 0 0 1-.65-.64l-.05-2.5c0-.16.1-.38.22-.48l9.62-9.39v-12.16h-22.63v29.44h22.63zm2.47-4.22l-1.67-1.65-9.35 9.12.05 1.6 1.67.05zm-21.34-8.53c0-.37.27-.64.65-.64h13.86c.38 0 .65.27.65.64s-.27.64-.65.64h-13.92c-.32 0-.59-.27-.59-.64zm0 5.23c0-.38.27-.64.65-.64h13.86c.38 0 .65.26.65.64 0 .37-.27.64-.65.64h-13.92c-.32 0-.59-.27-.59-.64zm9.68 5.86h-9.09a.62.62 0 0 1-.64-.64c0-.37.27-.64.64-.64h9.09c.37 0 .64.27.64.64 0 .38-.27.64-.64.64z"/>
    </defs>
    <g>
        <g transform="translate(-311 -3436)">
            <g>
                <use fill="#4c7df6" xlink:href="#s60la"/>
            </g>
        </g>
    </g>
</svg>