<svg xmlns="http://www.w3.org/2000/svg" xmlns:xlink="http://www.w3.org/1999/xlink" width="30" height="35" viewBox="0 0 30 35">
    <defs>
        <path id="u4e9a"
              d="M340 3589.84v11.79a4.36 4.36 0 0 1-4.34 4.37h-21.32a4.36 4.36 0 0 1-4.34-4.37v-11.8c0-1.88 1.2-3.5 2.88-4.1v-2.54c0-6.72 5.43-12.19 12.12-12.19 6.68 0 12.12 5.47 12.12 12.2v2.53a4.37 4.37 0 0 1 2.88 4.11zm-25.9-6.65v2.3l.24-.02h2.95v-2.27a7.74 7.74 0 0 1 7.71-7.76 7.74 7.74 0 0 1 7.71 7.76v2.27h2.95l.23.01v-2.28c0-6.05-4.88-10.96-10.89-10.96-6 0-10.9 4.91-10.9 10.95zm10.9-6.51a6.5 6.5 0 0 0-6.48 6.51v2.28h12.96v-2.28a6.5 6.5 0 0 0-6.48-6.51zm13.77 13.16c0-1.73-1.4-3.13-3.11-3.13h-21.32a3.13 3.13 0 0 0-3.11 3.13v11.79c0 1.73 1.4 3.13 3.11 3.13h21.32c1.71 0 3.1-1.4 3.1-3.13z"/>
        <path id="u4e9b" d="M328.62 3593.13c0 1.21-.6 2.32-1.59 2.99v4.34c0 .78-.64 1.42-1.43 1.42h-1.2c-.79 0-1.43-.64-1.43-1.42v-4.34a3.6 3.6 0 0 1 2.03-6.59c2 0 3.62 1.62 3.62 3.6zm-1.28 0a2.34 2.34 0 0 0-4.68 0c0 .87.47 1.66 1.25 2.07.2.1.34.32.34.56v4.7c0 .08.07.15.15.15h1.2c.08 0 .15-.07.15-.15v-4.7c0-.24.13-.45.34-.56.78-.4 1.26-1.2 1.25-2.07z"/>
    </defs>
    <g>
        <g transform="translate(-310 -3571)">
            <g>
                <use fill="#4c7df6" xlink:href="#u4e9a"/>
            </g>
            <g>
                <use fill="#4c7df6" xlink:href="#u4e9b"/>
            </g>
        </g>
    </g>
</svg>