<svg xmlns="http://www.w3.org/2000/svg" xmlns:xlink="http://www.w3.org/1999/xlink" width="32" height="32" viewBox="0 0 32 32">
    <defs>
        <path id="w3tba"
              d="M311.17 3108.05a15.95 15.95 0 0 1 0-16.07 3.82 3.82 0 0 1 .59-4.65l.57-.57a3.82 3.82 0 0 1 4.66-.59c4.96-2.9 11.1-2.9 16.06 0a3.83 3.83 0 0 1 4.65.59l.57.56a3.82 3.82 0 0 1 .59 4.65 16.15 16.15 0 0 1 0 16.07c.89 1.5.65 3.41-.58 4.65l-.58.58a3.82 3.82 0 0 1-4.65.58 16.07 16.07 0 0 1-16.06 0c-1.5.9-3.42.65-4.66-.58l-.57-.58a3.83 3.83 0 0 1-.59-4.64zm8.88 1.36c.65-.65.65-1.7 0-2.35l-2.86-2.87a.55.55 0 0 0-.78 0l-3.88 3.87a2.72 2.72 0 0 0 0 3.85l.58.57a2.72 2.72 0 0 0 3.42.35.55.55 0 0 1 .2-.14l.23-.2zm1.5-18.33zm0 0a2.78 2.78 0 0 1-.71 2.66l-2.08 2.08a2.75 2.75 0 0 1-2.67.72 9.67 9.67 0 0 0-.12 6.6 1.66 1.66 0 0 1 2.01.26l2.84 2.86c.7.7.97 1.72.71 2.68 2.24.86 4.71.86 6.94 0-.25-.96.02-1.98.72-2.68l2.07-2.07c.7-.7 1.72-.97 2.67-.71.86-2.24.86-4.71 0-6.94a2.76 2.76 0 0 1-2.65-.72l-2.07-2.08a2.75 2.75 0 0 1-.73-2.66 9.62 9.62 0 0 0-6.93 0zm10.58 22.02l-2.93-2.92a2.77 2.77 0 0 1-.22-.25 10.7 10.7 0 0 1-7.93 0c-.06.09-.14.17-.21.25l-2.93 2.92a15.02 15.02 0 0 0 14.22 0zm5.74-4.55a.55.55 0 0 1-.21-.3l-.17-.19-3.09-3.09a1.66 1.66 0 0 0-2.34 0l-2.08 2.08c-.64.65-.64 1.7 0 2.34l3.1 3.09c.05.06.12.12.19.17.1.04.2.1.28.2 1.07.68 2.47.53 3.37-.37l.57-.57c.9-.9 1.05-2.29.38-3.36zm.24-1.44a15.04 15.04 0 0 0 0-14.22l-2.92 2.93c-.08.07-.16.15-.25.21a10.74 10.74 0 0 1 0 7.94c.09.06.17.14.25.21l2.92 2.93zm-8.13-16.5c-.65.65-.65 1.7 0 2.35l2.08 2.07c.64.65 1.7.65 2.34 0l3.1-3.09a2.72 2.72 0 0 0 0-3.84l-.58-.58a2.72 2.72 0 0 0-3.85 0zm2.15-3.7a14.81 14.81 0 0 0-14.22 0l2.93 2.92c.07.08.15.16.21.25a10.73 10.73 0 0 1 7.93 0l.22-.25zm-19.6 5.04l3.09 3.09c.65.64 1.7.64 2.35 0l2.07-2.08c.65-.65.65-1.7 0-2.34l-3.09-3.1a2.72 2.72 0 0 0-3.84 0l-.58.58a2.72 2.72 0 0 0 0 3.85zm-.62.95h.01zm.01 0a14.84 14.84 0 0 0 0 14.22l3.17-3.16c-1-2.54-1-5.37 0-7.92a2.8 2.8 0 0 1-.25-.21z"/>
    </defs>
    <g>
        <g transform="translate(-309 -3084)">
            <use fill="#4c7df6" xlink:href="#w3tba"/>
            <use fill="#fff" fill-opacity="0" stroke="#4c7df6" stroke-miterlimit="50" stroke-width=".3" xlink:href="#w3tba"/>
        </g>
    </g>
</svg>