<svg xmlns="http://www.w3.org/2000/svg" xmlns:xlink="http://www.w3.org/1999/xlink" width="32" height="32" viewBox="0 0 32 32">
    <defs>
        <path id="55j7a"
              d="M882 3225a16 16 0 0 1 8 2.14.84.84 0 1 1-.84 1.47 14.32 14.32 0 1 0 7.16 12.39.84.84 0 0 1 1.68 0c0 8.83-7.17 16-16 16s-16-7.17-16-16 7.17-16 16-16zm14.71 4.22c.72.05 1.2.68.65 1.44-4.66 4.87-9.2 10.24-13.9 15.16-.3.3-.84.33-1.16.05l-7.16-6.32a.88.88 0 0 1-.13-1.23.87.87 0 0 1 1.24-.03l6.54 5.76c4.46-4.71 8.84-9.84 13.35-14.56a.85.85 0 0 1 .57-.27z"/>
    </defs>
    <g>
        <g transform="translate(-866 -3225)">
            <use fill="#4c7df6" xlink:href="#55j7a"/>
        </g>
    </g>
</svg>