<svg xmlns="http://www.w3.org/2000/svg" xmlns:xlink="http://www.w3.org/1999/xlink" width="39" height="32" viewBox="0 0 39 32">
    <defs>
        <path id="l3u4a"
              d="M346 3666.6a7.98 7.98 0 0 1-4.99 7.37v3.06c0 .4-.24.73-.6.89-.12.04-.24.08-.36.08a.94.94 0 0 1-.68-.28l-3.18-3.19h-4.7a7.87 7.87 0 0 1-7.08-4.35c-.16-.28-.04-.64.28-.8.28-.17.64-.04.8.28a6.7 6.7 0 0 0 6 3.7h4.94c.16 0 .32.09.44.17l2.94 2.94v-2.9a.6.6 0 0 1 .4-.57 6.72 6.72 0 0 0-.88-12.97c-.33-.09-.57-.37-.49-.69.08-.32.37-.56.69-.48a7.8 7.8 0 0 1 6.47 7.73zm-39-10.36c0-5.65 4.58-10.24 10.21-10.24h8.73a10.24 10.24 0 0 1-.04 20.47h-6.28l-4.22 4.24a1.08 1.08 0 0 1-1.85-.77v-4.15a10.18 10.18 0 0 1-6.55-9.55zm1.2 0c0 3.87 2.5 7.33 6.16 8.54.24.08.4.32.4.57v4.3l4.18-4.18a.6.6 0 0 1 .44-.17h6.52a9.03 9.03 0 0 0 0-18.05h-8.73a8.93 8.93 0 0 0-8.96 8.99zm6.04 0c0-.33.28-.6.6-.6h13.39c.32 0 .6.27.6.6 0 .32-.28.6-.6.6h-13.39a.62.62 0 0 1-.6-.6zm0-3.43c0-.32.28-.6.6-.6h13.39c.32 0 .6.28.6.6 0 .32-.28.6-.6.6h-13.39a.62.62 0 0 1-.6-.6zm0 6.81c0-.32.28-.6.6-.6h13.39c.32 0 .6.28.6.6 0 .32-.28.6-.6.6h-13.39a.62.62 0 0 1-.6-.6z"/>
    </defs>
    <g>
        <g transform="translate(-307 -3646)">
            <use fill="#638df7" xlink:href="#l3u4a"/>
        </g>
    </g>
</svg>