<svg xmlns="http://www.w3.org/2000/svg" xmlns:xlink="http://www.w3.org/1999/xlink" width="31" height="31" viewBox="0 0 31 31">
    <defs>
        <path id="4rlua"
              d="M898 3796.44v13.47a5.1 5.1 0 0 1-5.12 5.09h-25.3a.59.59 0 0 1-.58-.57v-22.55c0-.23.15-.46.38-.53l20.39-7.2c.3-.11.65-.15.96-.15a2.83 2.83 0 0 1 2.85 2.83v4.48h1.3c2.81 0 5.12 2.3 5.12 5.13zm-27.12-5.1h19.54v-4.47a1.73 1.73 0 0 0-2.3-1.6zm26 18.53v-3.02h-2.15a3.42 3.42 0 0 1-3.42-3.4v-.62c0-1.88 1.54-3.4 3.42-3.4h2.15v-3c0-2.21-1.8-3.97-4-3.97h-24.76v21.4h24.76c2.2 0 4-1.8 4-3.99zm-2.15-9.26c-1.23 0-2.27 1-2.27 2.26v.61c0 1.22 1 2.26 2.27 2.26h2.15v-5.17z"/>
    </defs>
    <g>
        <g transform="translate(-867 -3784)">
            <use fill="#4b7af7" xlink:href="#4rlua"/>
        </g>
    </g>
</svg>