<svg xmlns="http://www.w3.org/2000/svg" xmlns:xlink="http://www.w3.org/1999/xlink" width="33" height="36" viewBox="0 0 33 36">
    <defs>
        <path id="xt3za" d="M877 3155.48a3.48 3.48 0 0 1 3.5-3.48c1.94 0 3.5 1.59 3.5 3.52a3.48 3.48 0 0 1-3.5 3.48 3.51 3.51 0 0 1-3.5-3.52zm.91.04a2.56 2.56 0 0 0 2.59 2.57 2.56 2.56 0 0 0 2.59-2.57 2.58 2.58 0 0 0-5.18 0z"/>
        <path id="xt3zb"
              d="M899 3181.68c-.17.9-.45 1.75-.9 2.54a.54.54 0 0 1-.29.21.4.4 0 0 1-.34-.07 1.1 1.1 0 0 0-1.5.14c-.42.43-.42 1.1-.04 1.54.07.1.1.21.1.35 0 .15-.06.25-.17.33-.73.53-1.53.89-2.37 1.14-.1.03-.25 0-.35-.07a.52.52 0 0 1-.21-.33c-.07-.57-.56-1-1.15-.96-.6.04-1.05.5-1.08 1.07 0 .14-.07.25-.18.32-.1.07-.17.11-.28.11h-.07a7.73 7.73 0 0 1-2.47-.93.55.55 0 0 1-.21-.28.42.42 0 0 1 .07-.36c.35-.46.28-1.14-.14-1.54a1.07 1.07 0 0 0-1.5-.03c-.1.07-.21.1-.35.1a.36.36 0 0 1-.31-.17c-.18-.25-.32-.54-.46-.79a14.12 14.12 0 0 1-14.58-3.6 14.84 14.84 0 0 1-4.22-10.42 14.75 14.75 0 0 1 9.77-13.92c.24-.07.49.03.56.28.07.25-.04.5-.28.57a13.68 13.68 0 0 0-4.89 3l8.03 8.21c.31-.21.73-.36 1.18-.36 1.22 0 2.2 1 2.2 2.22a2.2 2.2 0 0 1-2.16 2.2 2.2 2.2 0 0 1-2.17-2.2c0-.43.1-.86.35-1.22l-8.06-8.24a14.13 14.13 0 0 0 .21 19.24 13.19 13.19 0 0 0 13.57 3.42c-.1-.25-.2-.53-.28-.82-.03-.1 0-.25.07-.36a.5.5 0 0 1 .32-.21c.56-.07.98-.57.94-1.18a1.15 1.15 0 0 0-1.05-1.1.36.36 0 0 1-.31-.18c-.07-.11-.1-.25-.07-.36.17-.9.45-1.75.9-2.53.08-.11.18-.18.29-.22a.4.4 0 0 1 .35.07 1.1 1.1 0 0 0 1.5-.14c.41-.43.41-1.1.03-1.53a.61.61 0 0 1-.1-.36c0-.14.07-.25.17-.32.73-.54 1.53-.9 2.37-1.14.1-.04.25 0 .35.07.1.07.18.18.21.32.07.57.6 1 1.15.96.6-.03 1.05-.5 1.08-1.07 0-.14.07-.25.18-.32.1-.07.24-.1.35-.07l.8.21c.97-4.64-.39-9.35-3.66-12.7a12.82 12.82 0 0 0-5.2-3.32c-.25-.07-.35-.32-.28-.57.07-.25.31-.36.56-.29 2.09.75 3.97 1.93 5.54 3.54a14.85 14.85 0 0 1 3.88 13.63l.83.43c.1.07.18.18.21.28.04.15 0 .25-.07.36-.35.46-.28 1.14.14 1.53.42.43 1.08.43 1.5.04.1-.07.21-.1.35-.1.14 0 .24.06.31.17.53.75.88 1.57 1.12 2.43.04.1 0 .25-.07.35a.5.5 0 0 1-.31.22 1.1 1.1 0 0 0-.94 1.18c.03.6.48 1.07 1.04 1.1.14 0 .25.07.32.18.1.07.14.22.17.32zm-19.95-11.7c0 .75.59 1.35 1.32 1.35.73 0 1.33-.57 1.33-1.32 0-.75-.6-1.35-1.33-1.35-.7 0-1.32.57-1.32 1.32zm18.9 11.99c-.76-.25-1.32-1-1.36-1.86a2.03 2.03 0 0 1 1.22-1.96 9.52 9.52 0 0 0-.62-1.36c-.74.4-1.64.29-2.27-.32-.63-.6-.8-1.5-.49-2.28-.45-.22-.9-.4-1.4-.5a1.98 1.98 0 1 1-3.73.14c-.45.18-.9.4-1.32.64.38.75.28 1.68-.32 2.32-.59.65-1.46.82-2.23.5-.2.47-.38.93-.49 1.43.77.25 1.33 1 1.36 1.86.04.85-.45 1.64-1.22 1.96.18.46.39.93.63 1.36.73-.4 1.64-.29 2.27.32.62.6.8 1.5.49 2.28.45.22.9.4 1.39.5a1.98 1.98 0 1 1 3.73-.14c.46-.18.91-.4 1.33-.64a2.04 2.04 0 0 1 .31-2.32c.6-.65 1.47-.83 2.24-.5.24-.47.38-.93.48-1.43z"/>
        <path id="xt3zc" d="M895 3180.36a3.52 3.52 0 0 1-3.35 3.64h-.17a3.53 3.53 0 0 1-3.48-3.35 3.52 3.52 0 0 1 3.35-3.65 3.48 3.48 0 0 1 3.65 3.36zm-.8.03a2.7 2.7 0 1 0-5.4.23 2.7 2.7 0 0 0 5.4-.23z"/>
    </defs>
    <g>
        <g transform="translate(-866 -3152)">
            <g>
                <use fill="#4c7df6" xlink:href="#xt3za"/>
                <use fill="#fff" fill-opacity="0" stroke="#4c7df6" stroke-miterlimit="50" stroke-width=".5" xlink:href="#xt3za"/>
            </g>
            <g>
                <use fill="#4c7df6" xlink:href="#xt3zb"/>
                <use fill="#fff" fill-opacity="0" stroke="#4c7df6" stroke-miterlimit="50" stroke-width=".5" xlink:href="#xt3zb"/>
            </g>
            <g>
                <use fill="#4c7df6" xlink:href="#xt3zc"/>
                <use fill="#fff" fill-opacity="0" stroke="#4c7df6" stroke-miterlimit="50" stroke-width=".5" xlink:href="#xt3zc"/>
            </g>
        </g>
    </g>
</svg>