<svg xmlns="http://www.w3.org/2000/svg" xmlns:xlink="http://www.w3.org/1999/xlink" width="64" height="64" viewBox="0 0 64 64"><defs><path id="ompka" d="M676.596 1561h-2.673v12.065c0 1.911-1.584 3.526-3.46 3.526h-10.227l-.236.242c.268.983 1.19 1.773 2.208 1.773h4.278l6.266 5.394v-5.394h3.844c1.21 0 2.404-1.135 2.404-2.383v-13.04c0-1.248-1.195-2.183-2.404-2.183"/><path id="ompkb" d="M632 1570c0-17.673 14.327-32 32-32 17.673 0 32 14.327 32 32 0 17.673-14.327 32-32 32-17.673 0-32-14.327-32-32z"/><path id="ompkd" d="M650 1568h19v1h-19zm0-3h19v1h-19zm0-3h19v1h-19zm19.746-5H649.29c-1.191 0-2.29.96-2.29 2.157v13.391c0 1.196 1.099 2.22 2.29 2.22h3.864V1580l6.094-5.233h10.498c1.191 0 2.254-1.023 2.254-2.219v-13.391c0-1.197-1.063-2.157-2.254-2.157"/><filter id="ompkc" width="43" height="48" x="648" y="1549" filterUnits="userSpaceOnUse"><feOffset dy="1" in="SourceGraphic" result="FeOffset1465Out"/><feGaussianBlur in="FeOffset1465Out" result="FeGaussianBlur1466Out" stdDeviation="0.8 0.8"/></filter></defs><g><g transform="translate(-632 -1538)"><g><use fill="#c7e8fd" xlink:href="#ompkb"/></g><g><g filter="url(#ompkc)"><use fill="none" stroke-opacity=".25" stroke-width="-3.4e+38" xlink:href="#ompka"/></g><use fill="#fff" xlink:href="#ompka"/></g><g><use fill="#47b4f9" xlink:href="#ompkd"/></g></g></g></svg>