<svg xmlns="http://www.w3.org/2000/svg" xmlns:xlink="http://www.w3.org/1999/xlink" width="35" height="38" viewBox="0 0 35 38">
    <defs>
        <path id="xtwla"
              d="M308.46 3377.18c.34.1.7-.1.8-.45 1.88-6.72 7.93-11.4 14.7-11.4 1.08 0 2.16.1 3.21.34-.02.95.37 1.6.63 2.02l.18.3c0 2.36-.47 2.75-.47 2.75-1.03 0-2.73.96-3.37 2.2-.39.75-.36 1.55.1 2.24.3.48.56 1.01.82 1.53.54 1.08 1.15 2.29 2.1 2.29.2 0 .4-.05.64-.17.74-.39 1.28-1.48 1.8-2.54.22-.47.55-1.15.75-1.37.65.1.97.7 1.4 1.66.31.7.64 1.43 1.28 1.76 1.08.56 4.62-.02 6.58-.88.3-.13.45-.46.37-.78a17.1 17.1 0 0 0-9.74-11.4.63.63 0 0 0-.83.36c-.13.33.02.72.35.86a15.76 15.76 0 0 1 8.83 9.95c-1.99.73-4.54.95-5 .71-.23-.12-.47-.66-.69-1.14-.44-1-1.05-2.36-2.6-2.43-.81-.05-1.26.9-1.85 2.1-.34.7-.85 1.76-1.27 1.97-.23-.05-.7-1-.98-1.56-.26-.52-.56-1.1-.9-1.65-.2-.29-.2-.57-.03-.9a3.4 3.4 0 0 1 2.24-1.49c1.16 0 1.74-1.37 1.74-4.07 0-.39-.19-.7-.37-1-.27-.45-.55-.9-.39-1.69a.66.66 0 0 0-.46-.78c-1.32-.35-2.7-.52-4.07-.52-7.33 0-13.89 5.08-15.93 12.36-.1.35.1.72.43.82z"/>
        <path id="xtwlb"
              d="M331.87 3380c.7 0 1.26.21 1.68.62.3.3.45.64.45.98 0 .59-.43 1-.88 1.42a3.3 3.3 0 0 0-.96 1.26c-.42 1.27-1.66 1.72-2.58 1.72-.62 0-1.14-.17-1.44-.48-.44-.44-1.44-.93-2.4-1.41-.67-.34-.8-.89-.71-1.29.13-.57.73-.98 1.43-.98.29 0 .57.07.83.2.17 0 .43-.32.57-.5.38-.46.9-1.09 1.71-1.09.06 0 .3-.07.47-.12.49-.14 1.16-.33 1.83-.33zm.84 1.46c-.19-.19-.46-.28-.84-.28-.5 0-1.06.16-1.51.28-.34.1-.58.17-.79.17-.26 0-.53.34-.8.66-.36.44-.77.95-1.42.95-.2 0-.4-.05-.59-.15a.66.66 0 0 0-.5-.04h.01c1.1.55 2.12 1.06 2.7 1.64.05.04.26.13.6.13.2 0 1.18-.04 1.47-.92.26-.77.82-1.3 1.26-1.73.2-.19.5-.47.52-.58l-.1-.13z"/>
        <path id="xtwlc"
              d="M339.85 3378.18a.62.62 0 0 0-.7-.54.63.63 0 0 0-.52.72c.1.7.14 1.4.14 2.11 0 8.35-6.53 15.16-14.6 15.26-2.18-1.45-4.23-3.22-3.32-5.42 1.64-3.95.12-5.43-.54-6.06l-.12-.12c-.19-.19-.4-.32-.58-.44-.45-.28-.57-.35-.33-1.1.16-.5.37-.73.62-1 .57-.62 1-1.24 1-3.04a2.4 2.4 0 0 0-1.4-2.29c-1.02-.46-2.38-.3-3.1.38-.45.42-.6.99-.41 1.57.44 1.35-.57 3.32-2.44 4.77-.5.38-.64.2-.73.1-.55-.65-.5-2.52-.06-2.98.3-.31.4-.71.24-1.07-.5-1.16-3.68-1.07-4.3-1.04a.62.62 0 0 0-.59.55c-.08.66-.11 1.24-.11 1.93 0 7.62 5 14.22 12.15 16.05.33.08.66-.13.74-.47a.64.64 0 0 0-.45-.77c-6.6-1.68-11.2-7.77-11.2-14.8 0-.45 0-.84.04-1.24a8.9 8.9 0 0 1 2.37.27c-.7 1.14-.62 3.38.24 4.4.62.74 1.51.77 2.4.08 2.36-1.83 3.49-4.26 2.87-6.19-.02-.06-.04-.12.07-.22.32-.3 1.15-.44 1.76-.15.46.2.68.57.68 1.12 0 1.44-.28 1.74-.67 2.17-.28.31-.64.7-.89 1.47-.55 1.72.34 2.27.87 2.6a1.9 1.9 0 0 1 .5.4c.53.51 1.54 1.49.24 4.62-1.47 3.56 2.33 6.03 3.95 7.1.1.06.21.09.33.09 8.82 0 16-7.42 16-16.53 0-.76-.05-1.53-.15-2.29z"/>
        <path id="xtwld" d="M334 3394.75a17.1 17.1 0 0 1-10.37 3.48c-9.59 0-17.39-7.9-17.39-17.6a.63.63 0 0 0-.62-.63.63.63 0 0 0-.62.63c0 10.19 8.02 18.5 18 18.84v1.9a.63.63 0 1 0 1.24 0v-1.9a18.3 18.3 0 0 0 10.51-3.71c.28-.2.33-.6.13-.88a.62.62 0 0 0-.87-.13z"/>
        <path id="xtwle" d="M324.26 3390.28c.28.37.52.88.64 1.36.19.7.1 1.33-.22 1.76-.3.38-.73.6-1.2.6-.46 0-.9-.22-1.2-.6-.3-.4-.37-1.01-.16-1.65.26-.83.98-1.75 1.6-1.75.2 0 .4.1.54.28zm-.29 1.76a2.6 2.6 0 0 0-.32-.72c-.13.09-.37.35-.54.71-.13.28-.13.44-.12.47.2.27.78.28 1 0 .04-.07.04-.24-.02-.46z"/>
    </defs>
    <g>
        <g transform="translate(-305 -3364)">
            <g>
                <use fill="#4c7df6" xlink:href="#xtwla"/>
            </g>
            <g>
                <use fill="#4c7df6" xlink:href="#xtwlb"/>
            </g>
            <g>
                <use fill="#4c7df6" xlink:href="#xtwlc"/>
            </g>
            <g>
                <use fill="#4c7df6" xlink:href="#xtwld"/>
            </g>
            <g>
                <use fill="#4c7df6" xlink:href="#xtwle"/>
            </g>
        </g>
    </g>
</svg>