<svg xmlns="http://www.w3.org/2000/svg" xmlns:xlink="http://www.w3.org/1999/xlink" width="28" height="36" viewBox="0 0 28 36">
    <defs>
        <path id="vydja" d="M325 3795.85l1.04 1.64c.28.4.52.81.76 1.22h.04c.24-.45.48-.86.72-1.22l1.04-1.6h1.44l-2.52 3.64 2.6 3.89h-1.52l-1.08-1.72-.8-1.3h-.04c-.24.44-.52.85-.76 1.3l-1.08 1.72h-1.44l2.64-3.85-2.48-3.68H325z"/>
        <path id="vydjb" d="M324.96 3816.02l-.4-.78-.4-.74c-.08.25-.2.45-.36.74l-.4.78h-.8l1.12-2-1.08-1.93h.8l.4.82c.12.24.2.45.32.65l.32-.65.4-.82h.8l-1.08 1.92 1.16 2z"/>
        <path id="vydjc" d="M326.28 3812.09h.72v3.31h1.56v.62h-2.28v-3.93z"/>
        <path id="vydjd" d="M329.08 3815.23c.24.12.56.25.92.25.44 0 .72-.2.72-.53 0-.3-.2-.5-.68-.66-.64-.2-1.04-.57-1.04-1.14 0-.66.52-1.15 1.36-1.15.4 0 .72.08.92.2l-.16.58c-.12-.08-.4-.2-.76-.2-.44 0-.64.24-.64.48 0 .29.24.45.72.66.68.24 1 .61 1 1.14 0 .62-.48 1.19-1.44 1.19-.4 0-.84-.12-1.04-.25z"/>
        <path id="vydje" d="M340.72 3792v26.67h-27.36v-35.47h18.76zm-8.36-.3H339l-6.64-6.82zm-18.04-7.48v25.24h25.36v-16.73h-8.32v-8.5zm0 33.47h25.36v-7.53h-25.36z"/>
    </defs>
    <g>
        <g transform="translate(-313 -3783)">
            <g>
                <use fill="#4b7af7" xlink:href="#vydja"/>
            </g>
            <g>
                <use fill="#507dfa" xlink:href="#vydjb"/>
            </g>
            <g>
                <use fill="#507dfa" xlink:href="#vydjc"/>
            </g>
            <g>
                <use fill="#507dfa" xlink:href="#vydjd"/>
            </g>
            <g>
                <use fill="#507dfa" xlink:href="#vydje"/>
                <use fill="#fff" fill-opacity="0" stroke="#5683f7" stroke-miterlimit="50" stroke-width=".3" xlink:href="#vydje"/>
            </g>
        </g>
    </g>
</svg>