<svg xmlns="http://www.w3.org/2000/svg" xmlns:xlink="http://www.w3.org/1999/xlink" width="54" height="55" viewBox="0 0 54 55"><defs><path id="wwg7a" d="M789 3660v9h9a13.523 13.523 0 0 0-9-9z"/><path id="wwg7b" d="M782.128 3704.757h-6.809v-6.504h6.809zm-10.564-.01h-6.798v-11.279h6.798zm-10.543.01h-6.808v-16.073h6.808zm4.426-31.795c0-4.443 1.702-8.886 4.085-11.962h-22.128c-1.702 0-3.404 1.367-3.404 3.418v47.164c0 1.71 1.362 3.418 3.404 3.418h41.192c1.702 0 3.404-1.367 3.404-3.418v-20.164c-2.043.683-4.426 1.367-7.149 1.367-10.553 0-19.404-8.886-19.404-19.823z"/><path id="wwg7c" d="M781.723 3676.277V3660c-6.58 1.732-11.082 8.312-9.35 15.93a12.646 12.646 0 0 0 9.697 9.697c7.618 1.732 14.198-2.77 15.93-9.35z"/></defs><g><g transform="translate(-744 -3660)"><g><g><use fill="#00b5ff" xlink:href="#wwg7a"/></g><g><use fill="#00b5ff" xlink:href="#wwg7b"/></g><g><use fill="#bfe9ff" xlink:href="#wwg7c"/></g></g></g></g></svg>