<?xml version="1.0" encoding="UTF-8"?>
<svg width="380px" height="715px" viewBox="0 0 380 715" version="1.1" xmlns="http://www.w3.org/2000/svg" xmlns:xlink="http://www.w3.org/1999/xlink">
    <!-- Generator: Sketch 55.1 (78136) - https://sketchapp.com -->
    <title>Group 2</title>
    <desc>Created with Sketch.</desc>
    <defs>
        <style type="text/css">
            @import url('https://fonts.googleapis.com/css?family=Montserrat:400,600');
            @import url('https://fonts.googleapis.com/css?family=Open+Sans:400,600');
        </style>
        <path d="M12.166405,0 L223.056515,0 C229.683932,-2.06527799e-14 235.056515,5.372583 235.056515,12 L235.056515,121 C235.056515,127.627417 229.683932,133 223.056515,133 L12.166405,133 C5.53898803,133 0.166405024,127.627417 0.166405024,121 L0.166405024,12 C0.166405024,5.372583 5.53898803,-5.58920087e-16 12.166405,0 Z" id="path-1"></path>
    </defs>
    <g id="main" stroke="none" stroke-width="1" fill="none" fill-rule="evenodd">
        <g id="SMS" transform="translate(-236.000000, -2139.000000)">
            <g id="Group-2" transform="translate(236.000000, 2139.000000)">
                <g id="Group-32">
                    <g id="Group-31">
                        <g id="sms_ilustration_What-is-an-SMS">
                            <g id="Group">
                                <path d="M344.826414,694.047619 L31.4757142,694.047619 C14.1693158,694.047619 0.00953520577,679.904762 0.00953520577,662.619048 L0.00953520577,31.4285714 C0.00953520577,14.1428571 14.1693158,0 31.4757142,0 L344.826414,0 C362.132812,0 376.292593,14.1428571 376.292593,31.4285714 L376.292593,662.619048 C376.292593,679.904762 362.132812,694.047619 344.826414,694.047619 Z" id="Path" fill="#99C2EA"></path>
                                <path d="M348.759686,715 L31.4757142,715 C14.1693158,715 0.00953520577,700.857143 0.00953520577,683.571429 L0.00953520577,44.5238095 C0.00953520577,27.2380952 14.1693158,13.0952381 31.4757142,13.0952381 L348.497468,13.0952381 C365.803866,13.0952381 379.967231,27.2380952 379.967231,44.5238095 L379.967231,683.571429 C380.225865,700.857143 366.066085,715 348.759686,715 Z" id="Path" fill="#EBF0F9"></path>
                                <path d="M340.893141,705.833333 L39.342259,705.833333 C22.0358605,705.833333 7.87607996,691.690476 7.87607996,674.404762 L7.87607996,58.9285714 C7.87607996,41.6428571 22.0358605,27.5 39.342259,27.5 L340.893141,27.5 C358.19954,27.5 372.35932,41.6428571 372.35932,58.9285714 L372.35932,674.404762 C372.35932,691.690476 358.19954,705.833333 340.893141,705.833333 Z" id="Path" fill="#FFFFFF"></path>
                                <rect id="Rectangle" fill="#EAEFF9" x="36.7200774" y="107.380952" width="307.22135" height="515.991667"></rect>
                                <g transform="translate(129.807524, 62.857143)" fill="#D8E2F4" id="Path">
                                    <path d="M87.8430831,5.23809524 L3.93327238,5.23809524 C2.62218159,5.23809524 1.31109079,4.19047619 1.31109079,2.61904762 L1.31109079,2.61904762 C1.31109079,1.30952381 2.62218159,0 3.93327238,0 L87.8430831,0 C89.1541739,0 90.4652647,1.04761905 90.4652647,2.61904762 L90.4652647,2.61904762 C90.4652647,4.19047619 89.1541739,5.23809524 87.8430831,5.23809524 Z"></path>
                                    <path d="M116.687081,5.23809524 L103.576173,5.23809524 C102.265082,5.23809524 100.953991,3.92857143 100.953991,2.61904762 L100.953991,2.61904762 C100.953991,1.30952381 102.265082,0 103.576173,0 L116.687081,0 C117.998171,0 119.309262,1.04761905 119.309262,2.61904762 L119.309262,2.61904762 C119.309262,3.92857143 117.998171,5.23809524 116.687081,5.23809524 Z"></path>
                                </g>
                                <g transform="translate(72.119529, 5.238095)" fill="#4A576D" id="Oval">
                                    <ellipse cx="3.93327238" cy="2.61904762" rx="3.93327238" ry="2.61904762"></ellipse>
                                    <ellipse cx="233.374161" cy="3.92857143" rx="2.62218159" ry="1.30952381"></ellipse>
                                </g>
                            </g>
                            <g id="Group-30" transform="translate(53.689168, 173.000000)">
                                <g id="Group-6" transform="translate(0.000000, 2.987500)" fill="#00A5FF">
                                    <ellipse id="Oval-2" cx="15.0301707" cy="15.012207" rx="15.0301707" ry="15.012207"></ellipse>
                                </g>
                                <polygon id="H" fill="#FFFFFF" fill-rule="nonzero" points="22.31425 27 20.2390547 27 20.2390547 18.6015625 10.8396406 18.6015625 10.8396406 27 8.76444531 27 8.76444531 9.15332031 10.8396406 9.15332031 10.8396406 16.7460938 20.2390547 16.7460938 20.2390547 9.15332031 22.31425 9.15332031"></polygon>
                            </g>
                            <g id="Group-30" transform="translate(55.000000, 383.000000)">
                                <g id="Group-6" transform="translate(0.000000, 2.987500)" fill="#00A5FF">
                                    <ellipse id="Oval-2" cx="15.0301707" cy="15.012207" rx="15.0301707" ry="15.012207"></ellipse>
                                </g>
                                <polygon id="H" fill="#FFFFFF" fill-rule="nonzero" points="22.31425 27 20.2390547 27 20.2390547 18.6015625 10.8396406 18.6015625 10.8396406 27 8.76444531 27 8.76444531 9.15332031 10.8396406 9.15332031 10.8396406 16.7460938 20.2390547 16.7460938 20.2390547 9.15332031 22.31425 9.15332031"></polygon>
                            </g>
                            <path d="M110,193 L320.89011,193 C327.517527,193 332.89011,198.372583 332.89011,205 L332.89011,314 C332.89011,320.627417 327.517527,326 320.89011,326 L110,326 C103.372583,326 98,320.627417 98,314 L98,205 C98,198.372583 103.372583,193 110,193 Z" id="Rectangle-5" fill="#FFFFFF"></path>
                            <g id="Group-3" transform="translate(97.000000, 417.000000)">
                                <g id="Bitmap">
                                    <mask id="mask-2" fill="white">
                                        <use xlink:href="#path-1"></use>
                                    </mask>
                                    <use id="Mask" fill="#FFFFFF" xlink:href="#path-1"></use>
                                </g>
                            </g>
                            <polygon id="Rectangle-3" fill="#D8E1F2" points="36.9858713 106.654167 344.207221 106.654167 344.207221 152.039909 36.9858713 152.039909"></polygon>
                            <path d="M74.549944,128.855881 C74.4964993,128.695898 74.3896097,128.535915 74.2827201,128.42926 L67.8693451,121.949957 C67.6021211,121.683319 67.2547299,121.55 66.9073388,121.55 C66.5599476,121.55 66.2660013,121.709983 66.0522221,121.949957 C65.8117206,122.189931 65.6781086,122.509897 65.6781086,122.88319 C65.6781086,123.229819 65.8117206,123.576449 66.0522221,123.816423 L70.2743607,128.029303 L56.191658,128.029303 C55.4701533,128.029303 54.8822606,128.589243 54.8822606,129.335829 C54.8822606,130.082415 55.4434309,130.642355 56.191658,130.642355 L70.3010831,130.642355 L66.0522221,134.775244 C65.8117206,135.015218 65.6781086,135.335184 65.6781086,135.708477 C65.6781086,136.08177 65.7849982,136.401736 66.0522221,136.64171 C66.2927237,136.881684 66.6401148,137.041667 66.987506,137.041667 C66.987506,137.041667 67.0142284,137.041667 67.0142284,137.041667 C67.3616195,137.041667 67.6555659,136.881684 67.8693451,136.64171 L74.2827201,130.242398 C74.3094425,130.215734 74.3361649,130.162407 74.3628873,130.135743 C74.3628873,130.109079 74.3896097,130.109079 74.4163321,130.055752 C74.683556,129.709122 74.7102784,129.229174 74.549944,128.855881 Z" id="Shape" fill="#8CA0B5" fill-rule="nonzero" transform="translate(64.765707, 129.295833) scale(-1, 1) translate(-64.765707, -129.295833) "></path>
                            <g id="Group" transform="translate(322.135008, 117.975000)" fill="#8CA0B5">
                                <ellipse id="Oval" cx="2.44677198" cy="2.56022135" rx="2.44677198" ry="2.56022135"></ellipse>
                                <ellipse id="Oval-Copy" cx="2.44677198" cy="11.5209961" rx="2.44677198" ry="2.56022135"></ellipse>
                                <ellipse id="Oval-Copy-2" cx="2.44677198" cy="20.4817708" rx="2.44677198" ry="2.56022135"></ellipse>
                            </g>
                            <g id="Group-5" transform="translate(277.990581, 114.400000)" fill="#EAEFF9">
                                <g id="Group-4">
                                    <ellipse id="Oval-2" cx="15.0301707" cy="15.012207" rx="15.0301707" ry="15.012207"></ellipse>
                                </g>
                            </g>
                            <path d="M291.476,126.388 L293.726,126.388 L293.726,136 L291.476,136 L291.476,126.388 Z M292.61,124.804 C292.201998,124.804 291.860001,124.675001 291.584,124.417 C291.307999,124.158999 291.17,123.838002 291.17,123.454 C291.17,123.069998 291.307999,122.749001 291.584,122.491 C291.860001,122.232999 292.201998,122.104 292.61,122.104 C293.018002,122.104 293.359999,122.226999 293.636,122.473 C293.912001,122.719001 294.05,123.027998 294.05,123.4 C294.05,123.796002 293.915001,124.128999 293.645,124.399 C293.374999,124.669001 293.030002,124.804 292.61,124.804 Z" id="i" fill="#8CA0B5" fill-rule="nonzero"></path>
                            <text id="Just-a-reminder-you" font-family="OpenSans, Open Sans" font-size="14" font-weight="normal" fill="#8A9EB3">
                                <tspan x="111" y="451">Just a reminder you have a</tspan>
                                <tspan x="111" y="470">hairdressing appointment at</tspan>
                                <tspan x="111" y="489">10:00am on Friday 13/12 with </tspan>
                                <tspan x="111" y="508">Shazz. Confirm Reply YES. </tspan>
                                <tspan x="111" y="527">Cancel Reply NO.</tspan>
                            </text>
                            <rect id="Rectangle-5" fill="#5570FB" x="241" y="565" width="92" height="38" rx="19"></rect>
                            <path d="M278.734375,583.789062 L281.4375,578.578125 L283.46875,578.578125 L279.664062,585.570312 L279.664062,590 L277.789062,590 L277.789062,585.632812 L274,578.578125 L276.03125,578.578125 L278.734375,583.789062 Z M291.4375,590 L284.976562,590 L284.976562,578.578125 L291.4375,578.578125 L291.4375,580.15625 L286.84375,580.15625 L286.84375,583.265625 L291.148438,583.265625 L291.148438,584.828125 L286.84375,584.828125 L286.84375,588.414062 L291.4375,588.414062 L291.4375,590 Z M300.492188,586.898438 C300.492188,587.914062 300.125004,588.710935 299.390625,589.289062 C298.656246,589.86719 297.643236,590.15625 296.351562,590.15625 C295.059889,590.15625 294.002608,589.955731 293.179688,589.554688 L293.179688,587.789062 C293.700523,588.033855 294.253903,588.226562 294.839844,588.367188 C295.425784,588.507813 295.971352,588.578125 296.476562,588.578125 C297.21615,588.578125 297.761717,588.437501 298.113281,588.15625 C298.464846,587.874999 298.640625,587.497398 298.640625,587.023438 C298.640625,586.596352 298.479168,586.234376 298.15625,585.9375 C297.833332,585.640624 297.166672,585.289065 296.15625,584.882812 C295.114578,584.460935 294.38021,583.979169 293.953125,583.4375 C293.52604,582.895831 293.3125,582.244795 293.3125,581.484375 C293.3125,580.531245 293.651038,579.781253 294.328125,579.234375 C295.005212,578.687497 295.914057,578.414062 297.054688,578.414062 C298.148443,578.414062 299.236974,578.653643 300.320312,579.132812 L299.726562,580.65625 C298.710932,580.229165 297.804691,580.015625 297.007812,580.015625 C296.403643,580.015625 295.945314,580.147134 295.632812,580.410156 C295.320311,580.673178 295.164062,581.020831 295.164062,581.453125 C295.164062,581.750001 295.226562,582.003905 295.351562,582.214844 C295.476563,582.425782 295.68229,582.624999 295.96875,582.8125 C296.25521,583.000001 296.77083,583.247394 297.515625,583.554688 C298.354171,583.903648 298.968748,584.229165 299.359375,584.53125 C299.750002,584.833335 300.036457,585.174477 300.21875,585.554688 C300.401043,585.934898 300.492188,586.38281 300.492188,586.898438 Z" id="YES" fill="#FFFFFF" fill-rule="nonzero"></path>
                        </g>
                    </g>
                </g>
                <g id="Group-33" transform="translate(111.000000, 212.000000)">
                    <text id="Special-offer-at-you" font-family="OpenSans, Open Sans" font-size="14" font-weight="normal" fill="#8A9EB3">
                        <tspan x="0" y="15">Special offer at your favourite</tspan>
                        <tspan x="0" y="34">hairdressing salon. 50% off all</tspan>
                        <tspan x="0" y="53">haircare products this Friday.</tspan>
                        <tspan x="0" y="72">Just show this message.</tspan>
                        <tspan x="0" y="91">To opt out reply STOP</tspan>
                    </text>
                    <g id="in-love" transform="translate(157.000000, 58.000000)" fill-rule="nonzero">
                        <g id="Group" transform="translate(8.500000, 9.000000) scale(-1, 1) rotate(-180.000000) translate(-8.500000, -9.000000) ">
                            <g id="Path">
                                <g>
                                    <path d="M16.2757724,8.15378049 C16.2757724,3.65942622 12.6322404,0.0158943089 8.13788618,0.0158943089 C3.64353191,0.0158943089 0,3.65942622 0,8.15378049 C0,12.6481348 3.64353191,16.2916667 8.13788618,16.2916667 C12.6322404,16.2916667 16.2757724,12.6481348 16.2757724,8.15378049" fill="#FFCC4D"></path>
                                    <path d="M8.13788618,6.41319472 C6.7969628,6.41319472 5.9067623,6.56963445 4.80631982,6.78345264 C4.55451423,6.83181108 4.06576423,6.78345264 4.06576423,6.04337388 C4.06576423,4.5622627 5.76705132,2.71137043 8.13788618,2.71137043 C10.508721,2.71137043 12.2100081,4.56230244 12.2100081,6.04337388 C12.2100081,6.78345264 11.720821,6.83228791 11.4694525,6.78345264 C10.3694869,6.56959472 9.47928638,6.41319472 8.13788618,6.41319472" fill="#664500"></path>
                                    <g transform="translate(0.158943, 9.020020)" fill="#E75A70">
                                        <path d="M7.36860163,5.78830996 C6.98022419,6.88736169 5.77539583,7.46424563 4.67586728,7.07682185 C4.00854472,6.84122846 3.53612612,6.30324583 3.35210976,5.67299675 C2.8136503,6.04826138 2.10838008,6.17032967 1.44240854,5.93568994 C0.343356809,5.54778933 -0.234003963,4.34200732 0.153896646,3.24295559 C0.209049898,3.08699268 0.282282927,2.94322866 0.367277744,2.80983567 C1.24933242,1.19040427 3.79786565,0.052014126 5.34132226,0.0379873984 C6.53307754,1.0177126 7.80346992,3.50290701 7.47390142,5.31720264 C7.4567753,5.47451657 7.42284096,5.63278415 7.36860163,5.78830996"></path>
                                        <path d="M8.58928455,5.78830996 C8.97766199,6.88736169 10.1829672,7.46424563 11.2820189,7.07682185 C11.9497786,6.84126819 12.4217601,6.30328557 12.6062533,5.67303648 C13.1447127,6.04830112 13.8499829,6.17036941 14.5159545,5.93568994 C15.6145691,5.54778933 16.1918901,4.34200732 15.8044664,3.24295559 C15.748876,3.08699268 15.6760801,2.94322866 15.5906084,2.80983567 C14.7085538,1.19040427 12.1600205,0.052014126 10.6165639,0.0379873984 C9.42480864,1.0177126 8.15485335,3.50290701 8.48442185,5.31720264 C8.5015877,5.47451657 8.53548232,5.63278415 8.58928455,5.78830996"></path>
                                    </g>
                                </g>
                            </g>
                        </g>
                    </g>
                </g>
            </g>
        </g>
    </g>
</svg>
