<svg xmlns="http://www.w3.org/2000/svg" xmlns:xlink="http://www.w3.org/1999/xlink" width="63" height="66" viewBox="0 0 63 66"><defs><path id="gliwa" d="M1136.4 3662.9c3.5 0 6.3 2.8 6.3 6.3s-2.8 6.3-6.3 6.3-6.3-2.8-6.3-6.3c0-3.4 2.8-6.3 6.3-6.3zm-15.1 9.5l2.6.9c.2.7.5 1.3.8 2l-1.2 2.4c-.2.4-.1.9.2 1.2l3.1 3.1c.3.3.8.4 1.2.2l2.4-1.2c.6.3 1.3.6 2 .8l.9 2.6c.1.4.5.7.9.7h4.4c.4 0 .8-.3 1-.7l.9-2.6c.7-.2 1.3-.5 2-.8l2.4 1.2c.4.2.9.1 1.2-.2l3.1-3.1c.3-.3.4-.8.2-1.2l-1.2-2.4c.3-.6.6-1.3.8-2l2.6-.9c.4-.1.7-.5.7-1v-4.4c0-.4-.3-.8-.7-1l-2.6-.7c-.2-.7-.5-1.4-.8-2l1.2-2.4c.2-.4.1-.8-.2-1.2l-3.2-3.2c-.3-.3-.8-.4-1.2-.2l-2.4 1.2c-.6-.3-1.3-.6-2-.8l-.9-2.6c-.1-.4-.5-.7-1-.7h-4.4c-.4 0-.8.3-.9.7l-.9 2.6c-.7.2-1.3.5-2 .8l-2.3-1.1c-.4-.2-.9-.1-1.2.2l-3.1 3.1c-.3.3-.4.8-.2 1.2l1.2 2.4c-.3.6-.6 1.3-.8 2l-2.6.9c-.4.1-.7.5-.7 1v4.4c.1.3.3.7.7.8z"/><path id="gliwb" d="M1160.2 3700.8h-5.4c-.6 0-1-.4-1-1s.4-1 1-1h5.4c.6 0 1 .4 1 1 0 .5-.5 1-1 1zm0 5.9h-10.9c-.6 0-1-.4-1-1s.4-1 1-1h10.8c.6 0 1 .4 1 1 .1.6-.4 1-.9 1zm0 6h-10.9c-.6 0-1-.4-1-1s.4-1 1-1h10.8c.6 0 1 .4 1 1 .1.6-.4 1-.9 1zm-37.5-13.9c.6 0 1 .4 1 1s-.4 1-1 1h-5.4c-.6 0-1-.4-1-1s.4-1 1-1zm0 7.9h-10.9c-.6 0-1-.4-1-1s.4-1 1-1h10.8c.6 0 1 .4 1 1 .1.6-.4 1-.9 1zm0 6h-10.9c-.6 0-1-.4-1-1s.4-1 1-1h10.8c.6 0 1 .4 1 1 .1.6-.4 1-.9 1zm43.4-19.7h-11.2v-3.4c0-.5-.5-1-1-1h-16.5v-1.6h-2v1.6h-16.5c-.6 0-1 .5-1 1v3.4h-12c-.5 0-1 .5-1 1v23.5c0 .6.5 1 1 1h22.8c.5 0 1-.4 1-1V3694c0-.5-.5-1-1-1h-8.7v-2.4h33v2.4h-9.6c-.5 0-1 .5-1 1v23.5c0 .6.5 1 1 1h22.8c.5 0 1-.4 1-1V3694c-.1-.5-.5-1-1.1-1z"/><path id="gliwc" d="M1119 3693v-3h35v3"/><path id="gliwd" d="M1135 3689v-2h2v2z"/></defs><g><g transform="translate(-1105 -3653)"><g><g><use fill="#00b5ff" xlink:href="#gliwa"/></g><g><use fill="#c7e8fd" xlink:href="#gliwb"/></g></g><g><use fill="#fff" fill-opacity="0" stroke="#00b5ff" stroke-linejoin="round" stroke-miterlimit="50" stroke-width="2" xlink:href="#gliwc"/></g><g><use fill="#00b5ff" xlink:href="#gliwd"/></g></g></g></svg>