<svg xmlns="http://www.w3.org/2000/svg" xmlns:xlink="http://www.w3.org/1999/xlink" width="101" height="56" viewBox="0 0 101 56"><defs><path id="czgla" d="M392.359 3671.597h-8.36a.616.616 0 0 1-.625-.625c0-.313.235-.625.625-.625h8.36c.312 0 .625.234.625.625a.616.616 0 0 1-.625.625zm12.344.625a3.668 3.668 0 0 0-3.672-3.672h-24.22a3.668 3.668 0 0 0-3.671 3.672v1.172h31.484v-1.172z"/><path id="czglb" d="M394.158 3700.263c-1.016 1.016-2.97.39-2.97-1.25v-3.437h-1.405c-.938 0-1.72-.782-1.72-1.797v-14.922c0-.938.782-1.797 1.72-1.797h15v-2.5H373.22v16.094h10.86c.937 0 1.796.781 1.796 1.797v12.421c0 .938-.781 1.797-1.797 1.797h-.859v2.5c0 1.563-1.875 2.344-2.969 1.25l-3.75-3.906h-3.281v4.922h31.484v-15.781h-5.937z"/><path id="czglc" d="M388.22 3713.704c.703 0 1.328.625 1.328 1.328 0 .703-.625 1.328-1.328 1.328-.703 0-1.328-.625-1.328-1.328 0-.703.625-1.328 1.328-1.328zm-15 .078a3.668 3.668 0 0 0 3.672 3.672h24.219a3.668 3.668 0 0 0 3.672-3.672v-1.172H373.22z"/><path id="czgld" d="M409.705 3683.222h-16.25a.614.614 0 0 1-.625-.62c0-.31.234-.62.625-.62h16.25c.313 0 .625.232.625.62-.078.388-.312.62-.625.62zm0 3.908h-16.25a.614.614 0 0 1-.625-.62c0-.31.234-.62.625-.62h16.25c.313 0 .625.232.625.62-.078.388-.312.62-.625.62zm0 3.908h-16.25a.614.614 0 0 1-.625-.62c0-.31.234-.62.625-.62h16.25c.313 0 .625.232.625.62-.078.388-.312.62-.625.62zm3.75-12.808h-23.75a.616.616 0 0 0-.625.625v15.078c0 .313.234.625.625.625h2.578v4.61c0 .546.703.78 1.016.39l5-5h15.156a.616.616 0 0 0 .625-.625v-15.078c-.078-.312-.312-.625-.625-.625z"/><path id="czgle" d="M366.969 3701.36c0-.313.234-.626.625-.626h13.594c.312 0 .625.235.625.625a.616.616 0 0 1-.625.625h-13.672c-.313-.078-.547-.312-.547-.625zm.547-3.438h13.672c.312 0 .625.234.625.625a.616.616 0 0 1-.625.625h-13.672a.616.616 0 0 1-.625-.625c.078-.313.312-.625.625-.625zm0-2.813h13.672c.312 0 .625.235.625.625a.616.616 0 0 1-.625.625h-13.672a.616.616 0 0 1-.625-.625c.078-.312.312-.625.625-.625zm13.593 14.375c.391.391 1.016.078 1.016-.39v-3.672h2.031a.616.616 0 0 0 .625-.625v-12.422a.616.616 0 0 0-.625-.625h-19.531a.616.616 0 0 0-.625.625v12.422c0 .312.234.625.625.625h12.422z"/><path id="czglf" d="M437.2 3691.252h-10.4c-.2 0-.4-.152-.4-.406 0-.203.15-.407.4-.407h10.4c.2 0 .4.153.4.407-.05.254-.2.406-.4.406zm0 2.541h-10.4c-.2 0-.4-.152-.4-.406 0-.203.15-.407.4-.407h10.4c.2 0 .4.153.4.407-.05.254-.2.406-.4.406zm0 2.541h-10.4c-.2 0-.4-.152-.4-.406 0-.203.15-.407.4-.407h10.4c.2 0 .4.153.4.407-.05.254-.2.406-.4.406zm2.4-8.334h-15.2c-.2 0-.4.152-.4.407v9.808c0 .203.15.406.4.406h1.65v2.999c0 .355.45.508.65.254l3.2-3.253h9.7c.2 0 .4-.152.4-.406v-9.808c-.05-.204-.2-.407-.4-.407z"/><path id="czglg" d="M437.2 3708.252h-10.4c-.2 0-.4-.152-.4-.406 0-.203.15-.407.4-.407h10.4c.2 0 .4.153.4.407-.05.254-.2.406-.4.406zm0 2.541h-10.4c-.2 0-.4-.152-.4-.406 0-.203.15-.407.4-.407h10.4c.2 0 .4.153.4.407-.05.254-.2.406-.4.406zm0 2.541h-10.4c-.2 0-.4-.152-.4-.406 0-.203.15-.407.4-.407h10.4c.2 0 .4.153.4.407-.05.254-.2.406-.4.406zm2.4-8.334h-15.2c-.2 0-.4.152-.4.407v9.808c0 .203.15.406.4.406h1.65v2.999c0 .355.45.508.65.254l3.2-3.253h9.7c.2 0 .4-.152.4-.406v-9.808c-.05-.204-.2-.407-.4-.407z"/><path id="czglh" d="M341.8 3683.252h10.4c.2 0 .4-.152.4-.406a.398.398 0 0 0-.4-.407h-10.4c-.2 0-.4.153-.4.407.05.254.2.406.4.406zm0 2.541h10.4c.2 0 .4-.152.4-.406a.398.398 0 0 0-.4-.407h-10.4c-.2 0-.4.153-.4.407.05.254.2.406.4.406zm0 2.541h10.4c.2 0 .4-.152.4-.406a.398.398 0 0 0-.4-.407h-10.4c-.2 0-.4.153-.4.407.05.254.2.406.4.406zm-2.4-8.334h15.2c.2 0 .4.152.4.407v9.808c0 .203-.15.406-.4.406h-1.65v2.999c0 .355-.45.508-.65.254l-3.2-3.253h-9.7c-.2 0-.4-.152-.4-.406v-9.808c.05-.204.2-.407.4-.407z"/><path id="czgli" d="M341.8 3666.252h10.4c.2 0 .4-.152.4-.406a.398.398 0 0 0-.4-.407h-10.4c-.2 0-.4.153-.4.407.05.254.2.406.4.406zm0 2.541h10.4c.2 0 .4-.152.4-.406a.398.398 0 0 0-.4-.407h-10.4c-.2 0-.4.153-.4.407.05.254.2.406.4.406zm0 2.541h10.4c.2 0 .4-.152.4-.406a.398.398 0 0 0-.4-.407h-10.4c-.2 0-.4.153-.4.407.05.254.2.406.4.406zm-2.4-8.334h15.2c.2 0 .4.152.4.407v9.808c0 .203-.15.406-.4.406h-1.65v2.999c0 .355-.45.508-.65.254l-3.2-3.253h-9.7c-.2 0-.4-.152-.4-.406v-9.808c.05-.204.2-.407.4-.407z"/><path id="czglj" d="M371 3704h-10v-33"/><path id="czglk" d="M349 3687.5h11"/><path id="czgll" d="M349 3670.5H361"/><path id="czglm" d="M428.986 3712.698H418.66V3679.34"/><path id="czgln" d="M407 3696.5h10.574"/><path id="czglo" d="M407 3679.5H419"/></defs><g><g transform="translate(-339 -3663)"><g><g><use fill="#00b5ff" xlink:href="#czgla"/></g><g><use fill="#bfe9ff" xlink:href="#czglb"/></g><g><use fill="#00b5ff" xlink:href="#czglc"/></g><g><use fill="#00b5ff" xlink:href="#czgld"/></g><g><use fill="#00b5ff" xlink:href="#czgle"/></g></g><g><use fill="#bfe9ff" xlink:href="#czglf"/></g><g><use fill="#bfe9ff" xlink:href="#czglg"/></g><g><use fill="#bfe9ff" xlink:href="#czglh"/></g><g><use fill="#bfe9ff" xlink:href="#czgli"/></g><g><use fill="#fff" fill-opacity="0" stroke="#00b5ff" stroke-dasharray="2 2" stroke-miterlimit="50" stroke-width="2" xlink:href="#czglj"/></g><g><use fill="#fff" fill-opacity="0" stroke="#00b5ff" stroke-dasharray="2 2" stroke-miterlimit="50" stroke-width="2" xlink:href="#czglk"/></g><g><use fill="#fff" fill-opacity="0" stroke="#00b5ff" stroke-dasharray="2 2" stroke-miterlimit="50" stroke-width="2" xlink:href="#czgll"/></g><g transform="rotate(180 418 3696)"><g><use fill="#fff" fill-opacity="0" stroke="#00b5ff" stroke-dasharray="2 2" stroke-miterlimit="50" stroke-width="2" xlink:href="#czglm"/></g><g><use fill="#fff" fill-opacity="0" stroke="#00b5ff" stroke-dasharray="2 2" stroke-miterlimit="50" stroke-width="2" xlink:href="#czgln"/></g><g><use fill="#fff" fill-opacity="0" stroke="#00b5ff" stroke-dasharray="2 2" stroke-miterlimit="50" stroke-width="2" xlink:href="#czglo"/></g></g></g></g></svg>