<svg xmlns="http://www.w3.org/2000/svg" xmlns:xlink="http://www.w3.org/1999/xlink" width="64" height="64" viewBox="0 0 64 64"><defs><path id="2p9la" d="M209.4 1209.33h-25.45v-15.113c0-.388.35-.727.75-.727h14.65v-.92h-14.6c-.95 0-1.75.727-1.75 1.647v17.68c0 .92.8 1.646 1.75 1.646h23.95c.95 0 1.75-.726 1.75-1.646v-13.224h-.95v10.656z"/><path id="2p9lb" d="M191.506 1198.594c-.312.19-.506.496-.506.838v4.877c0 .343.194.686.506.838.155.076.31.114.505.114s.35-.038.506-.114l4.277-2.438c.312-.19.506-.495.506-.838 0-.343-.194-.648-.506-.839l-4.277-2.438a1.175 1.175 0 0 0-1.011 0z"/><path id="2p9lc" d="M166 1203c0-17.673 14.327-32 32-32 17.673 0 32 14.327 32 32 0 17.673-14.327 32-32 32-17.673 0-32-14.327-32-32z"/><path id="2p9ld" d="M212.05 1192.854h-8.75c-.25 0-.5-.192-.5-.48 0-.239.2-.479.5-.479h8.75c.25 0 .5.192.5.48-.05.287-.25.48-.5.48zm0 2.238h-8.75c-.25 0-.5-.194-.5-.484 0-.242.2-.485.5-.485h8.75c.25 0 .5.194.5.485-.05.29-.25.484-.5.484zm-8.75-5.376h5.6c.25 0 .5.191.5.48 0 .239-.2.478-.5.478h-5.6c-.25 0-.5-.191-.5-.479 0-.24.2-.48.5-.48zm10.45-2.616H201.6c-.7 0-1.25.533-1.25 1.26v8.137c0 .678.55 1.21 1.25 1.21h.95v2.907c0 .194.1.34.25.436.15.097.35.048.5-.048l4.75-3.294h5.7c.7 0 1.25-.533 1.25-1.211v-8.138c0-.678-.55-1.259-1.25-1.259z"/><path id="2p9le" d="M202.25 1216.98h-1.2c-.5-.823-.65-1.647-.45-2.47h-7.8c.2.823.05 1.647-.45 2.47h-1.2c-.25 0-.5.194-.5.485 0 .242.2.484.5.484h11.1c.25 0 .5-.194.5-.484s-.25-.485-.5-.485z"/><mask id="2p9lg" width="2" height="2" x="-1" y="-1"><path fill="#fff" d="M183 1192h28v22h-28z"/><use xlink:href="#2p9la"/></mask><filter id="2p9lf" width="52" height="47" x="171" y="1180" filterUnits="userSpaceOnUse"><feOffset dy="1" in="SourceGraphic" result="FeOffset1213Out"/><feGaussianBlur in="FeOffset1213Out" result="FeGaussianBlur1214Out" stdDeviation="0.8 0.8"/></filter><mask id="2p9li" width="2" height="2" x="-1" y="-1"><path fill="#fff" d="M191 1198h7v8h-7z"/><use xlink:href="#2p9lb"/></mask><filter id="2p9lh" width="31" height="33" x="179" y="1186" filterUnits="userSpaceOnUse"><feOffset dy="1" in="SourceGraphic" result="FeOffset1229Out"/><feGaussianBlur in="FeOffset1229Out" result="FeGaussianBlur1230Out" stdDeviation="0.8 0.8"/></filter></defs><g><g transform="translate(-166 -1171)"><g><use fill="#c7e8fd" xlink:href="#2p9lc"/></g><g><g><g><use fill="#47b4f9" xlink:href="#2p9ld"/></g><g><use fill="#47b4f9" xlink:href="#2p9le"/></g><g><g filter="url(#2p9lf)"><use fill="none" stroke-opacity=".25" stroke-width="0" mask="url(&quot;#2p9lg&quot;)" xlink:href="#2p9la"/><use fill="#265674" fill-opacity=".25" xlink:href="#2p9la"/></g><use fill="#fff" xlink:href="#2p9la"/></g><g><g filter="url(#2p9lh)"><use fill="none" stroke-opacity=".25" stroke-width="0" mask="url(&quot;#2p9li&quot;)" xlink:href="#2p9lb"/><use fill="#265674" fill-opacity=".25" xlink:href="#2p9lb"/></g><use fill="#fff" xlink:href="#2p9lb"/></g></g></g></g></g></svg>