<svg xmlns="http://www.w3.org/2000/svg" xmlns:xlink="http://www.w3.org/1999/xlink" width="241" height="44" viewBox="0 0 241 44">
    <defs>
        <path id="cj15a" d="M246.56 38.88h31.61v37.13h-31.61z"/>
        <path id="cj15e" d="M274.17 38.88h-4.44v19.47a5.8 5.8 0 0 1-5.76 5.7h-17.02l-.39.39a3.96 3.96 0 0 0 3.67 2.86h7.12l10.43 8.7v-8.7h6.4c2 0 4-1.83 4-3.85V42.4c0-2.01-2-3.52-4-3.52"/>
        <path id="cj15b" d="M225.48 32h42.15v38.5h-42.15z"/>
        <path id="cj15g" d="M263.83 32h-34.49c-2 0-3.86 1.6-3.86 3.61v22.42c0 2 1.85 3.71 3.86 3.71h6.52v8.76l10.27-8.76h17.7c2.01 0 3.8-1.71 3.8-3.71V35.6c0-2-1.79-3.61-3.8-3.61"/>
        <path id="cj15c" d="M50 38.88h25.2v28.88H50z"/>
        <path id="cj15i" d="M74.06 42.01a32.3 32.3 0 0 0-8.75-1.34C56.93 40.67 52 45.79 52 53.32c0 7.6 5.06 12.69 12.92 12.69 2.63 0 6-.45 9.93-1.59l.36 1.59a33.56 33.56 0 0 1-10.37 1.74C55.79 67.76 50 61.99 50 53.33s5.8-14.44 15.15-14.44c3.16 0 6.36.53 9.32 1.42z"/>
        <path id="cj15j" d="M78.87 66.84h1.83V38.88h-1.83z"/>
        <path id="cj15k" d="M84.43 48.29h1.7v18.54h-1.7zm.83-8.5c.75 0 1.39.61 1.39 1.46 0 .82-.64 1.47-1.4 1.47-.79 0-1.35-.65-1.35-1.47 0-.85.56-1.46 1.36-1.46z"/>
        <path id="cj15l" d="M106.43 50.05a24.4 24.4 0 0 0-5.88-.9c-5 0-8.38 3.29-8.38 8.26 0 5.02 3.34 8.26 8.06 8.26 1.77 0 4.34-.45 6.68-1.1l.36 1.54a26.16 26.16 0 0 1-7 1.18c-5.88 0-9.95-3.89-9.95-9.88s4.1-9.83 10.19-9.83c1.93 0 4.43.4 6.24 1.01z"/>
        <path id="cj15m" d="M115.9 56.75l8.47-8.24h2.36l-8.65 8.4 10.27 9.93H126l-8.9-8.4h-4.33v8.4h-1.83V38.88h1.83v17.87z"/>
        <path id="cj15n"
              d="M150.36 44a35.6 35.6 0 0 0-9.3-1.62c-3.55 0-5.85 1.5-5.85 4.3 0 2.58 2.3 3.35 6.97 4.32 6.05 1.24 10 2.77 10 7.96 0 5.52-4.4 8.34-10.56 8.34-3.38 0-7.65-.77-11.44-2.3l.97-3.58a29.17 29.17 0 0 0 10.63 2.3c3.87 0 6.53-1.5 6.53-4.4 0-3.66-4.4-4.26-8.62-5.1-6.09-1.25-8.54-3.1-8.54-7.41 0-4.87 4.02-7.93 10.03-7.93 3.66 0 7.69.85 10.19 1.73z"/>
        <path id="cj15o" d="M158.34 55.76c.41-3.4 2.7-5.67 6.17-5.67 3.4 0 5.72 2.18 5.8 5.67zm15.36.04c-.04-5.27-3.88-8.67-9.27-8.67-5.72 0-9.97 3.97-9.97 10.04 0 5.8 3.76 10.13 10.62 10.13 2.62 0 4.86-.53 7.6-1.38l-.57-3c-2.82.65-4.82 1.06-6.9 1.06-3.76 0-6.17-2.15-6.75-5.35h15.04c.16-1.17.2-1.54.2-2.83z"/>
        <path id="cj15p" d="M194.79 55v11.83h-3.67V56.01c0-3.16-1.9-5.12-4.87-5.12-1.86 0-3.9.16-6.12.48v15.46h-3.67V48.5a65.2 65.2 0 0 1 10.55-.92c4.76 0 7.78 2.84 7.78 7.43"/>
        <path id="cj15q" d="M200.74 57.64c0-3.98 2-6.83 6.65-6.83 1.63 0 3.63.16 5.67.73v12.68c-2.98.45-4.49.49-5.87.49-4.25 0-6.45-2.85-6.45-7.07zm16.03-18.76h-3.71v9.5c-1.92-.53-4.12-.7-6.12-.7-6.44 0-9.87 3.98-9.87 9.96 0 6.38 3.87 10.11 9.34 10.11 2.9 0 4.98.05 10.36-.8z"/>
        <path id="cj15r" d="M282.56 44.38h-.54v-4.97H280v-.53h4.58v.53h-2.02z"/>
        <path id="cj15s" d="M288.27 44.38h-.5l-1.94-4.25-.24 4.25h-.55l.31-5.5h.53l2.14 4.81 2.13-4.81h.53l.32 5.5h-.55l-.25-4.25z"/>
        <clipPath id="cj15d">
            <use xlink:href="#cj15a"/>
        </clipPath>
        <clipPath id="cj15f">
            <use xlink:href="#cj15b"/>
        </clipPath>
        <clipPath id="cj15h">
            <use xlink:href="#cj15c"/>
        </clipPath>
    </defs>
    <g>
        <g transform="translate(-50 -32)">
            <g/>
            <g clip-path="url(#cj15d)">
                <use fill="#fff" xlink:href="#cj15e"/>
            </g>
            <g/>
            <g clip-path="url(#cj15f)">
                <use fill="#fff" xlink:href="#cj15g"/>
            </g>
            <g/>
            <g clip-path="url(#cj15h)">
                <use fill="#fff" xlink:href="#cj15i"/>
            </g>
            <g>
                <use fill="#fff" xlink:href="#cj15j"/>
            </g>
            <g>
                <use fill="#fff" xlink:href="#cj15k"/>
            </g>
            <g>
                <use fill="#fff" xlink:href="#cj15l"/>
            </g>
            <g>
                <use fill="#fff" xlink:href="#cj15m"/>
            </g>
            <g>
                <use fill="#fff" xlink:href="#cj15n"/>
            </g>
            <g>
                <use fill="#fff" xlink:href="#cj15o"/>
            </g>
            <g>
                <use fill="#fff" xlink:href="#cj15p"/>
            </g>
            <g>
                <use fill="#fff" xlink:href="#cj15q"/>
            </g>
            <g>
                <use fill="#fff" xlink:href="#cj15r"/>
            </g>
            <g>
                <use fill="#fff" xlink:href="#cj15s"/>
            </g>
        </g>
    </g>
</svg>